<svg width="784" height="485" fill="none" xmlns="http://www.w3.org/2000/svg"><g filter="url(#filter0_d)"><path d="M45.4 97.1l251.9-59.4c5.4-1.2 10.7 2.2 11.8 7.6L389 383.9c1.4 5.3-1.8 10.7-7.2 12.1l-251.9 59.4c-5.4 1.2-10.7-2.2-11.8-7.6L38.2 109.2c-1.4-5.3 1.8-10.7 7.2-12.1-.1 0-.1 0 0 0z" fill="url(#paint0_linear)"/></g><path d="M74.9 122.8l1.7 7.1c.1.2 0 .4-.1.6-.1.2-.3.3-.5.4-.4.1-.8-.2-.9-.6l-1.5-6.3-2.8.7 1.5 6.3c.1.2 0 .4-.1.6-.1.2-.3.3-.5.4-.2.1-.4 0-.6-.1-.2-.1-.3-.3-.4-.5l-1.7-7.1c-.1-.2 0-.4.1-.6.1-.2.3-.3.5-.3l4.4-1.1c.2-.1.4 0 .6.1.1 0 .2.2.3.4zm9.4 1.5c.3 1.2.2 2.4-.3 3.6-.8 1.7-2.8 2.4-4.5 1.6 0 0-.1 0-.1-.1-.2-.1-.4-.2-.5-.3-1.8-1.7-2.5-4.3-1.6-6.6.8-1.7 2.7-2.4 4.4-1.6 0 0 .1 0 .1.1.2.1.4.2.6.4 1.1.6 1.7 1.7 1.9 2.9zm-1.6 2.7c.4-1.6 0-3.3-1-4.5-.7-.7-1.8-.7-2.4 0-.2.2-.3.4-.4.7-.3.8-.3 1.6 0 2.4.1.8.5 1.6 1.1 2.1.7.7 1.8.6 2.5-.1 0-.1.1-.3.2-.6zm3 2.4l-.4-1.6c-.1-.2 0-.4.1-.6.1-.2.3-.3.6-.4v-6.7c0-.4.3-.8.7-.9l2.6-.6c.2-.1.4 0 .6.1.2.1.3.3.3.5l1.5 6.3.2-.1c.2-.1.4 0 .6.1.2.1.3.3.4.5l.4 1.6c.1.2 0 .4-.1.6-.2.4-.7.5-1.1.3-.2-.1-.3-.3-.3-.5l-.2-.9-4.5 1.1.2.9c.1.2 0 .4-.1.6-.1.2-.3.3-.5.4-.2.1-.4 0-.6-.1-.2-.2-.3-.4-.4-.6zm1.9-8.8v5.9l2.6-.6-1.3-5.6-1.3.3zm7.4 4l-.1.9c0 .4-.2.8-.6.9-.2.1-.4 0-.6-.1-.2-.1-.3-.3-.4-.5 0-.1-.1-.2-.1-.3v-.5l.7-6.8c0-.5.3-.9.7-1 .5-.1.9.2 1.1.6l3.6 5.8c.2.2.3.5.4.8.1.4-.2.9-.6 1-.4.1-.8-.1-.9-.5l-.5-.8-2.7.5zm.5-4.7l-.3 3.1 1.9-.4-1.6-2.7zm10.2-2.2c.2.8.1 1.6-.3 2.2-.5.7-1.3 1.2-2.1 1.3l-1.2.3.5 2.1c.1.2 0 .4-.1.6-.1.2-.3.3-.5.4-.2.1-.4 0-.6-.1-.2-.1-.3-.3-.4-.5l-1.6-7c-.1-.2 0-.4.1-.6.1-.2.3-.3.5-.3l2-.5c.8-.2 1.7-.1 2.4.3s1.1 1 1.3 1.8zm-4 2.3l1.2-.3c.4-.1.7-.3 1-.6.2-.3.2-.7.1-1.1-.1-.4-.3-.7-.6-.9-.3-.2-.7-.2-1.1-.1l-1.2.3.6 2.7zm12.5-2.8c.3 1.2.2 2.4-.3 3.6-.8 1.7-2.8 2.4-4.5 1.6 0 0-.1 0-.1-.1-.2-.1-.3-.2-.5-.3-.9-.8-1.6-1.8-1.8-3-.3-1.2-.3-2.4.3-3.6.8-1.7 2.8-2.3 4.4-1.5h.1c.2.1.4.2.6.4.9.7 1.6 1.8 1.8 2.9zm-1.6 2.8c.3-.8.3-1.6 0-2.4-.1-.8-.5-1.6-1.1-2.1-.4-.4-1-.6-1.6-.5-.6.1-1 .5-1.2 1.1-.4 1.6 0 3.3 1 4.5.7.7 1.8.6 2.5-.1l.1-.1c.1 0 .2-.2.3-.4zm3.7-7l.5 2.2c.1.3.2.6.5.8.3.2.6.2.9.1l1.6-.4-.8-3.3c-.1-.2 0-.4.1-.6.2-.4.7-.5 1.1-.3.2.1.3.3.3.5l1.7 7.1c.1.2 0 .4-.1.6-.1.2-.3.3-.5.4-.4.1-.8-.2-.9-.6l-.5-2.1-1.6.4c-.7.2-1.5.1-2.1-.2-.6-.4-1-1-1.2-1.7l-.5-2.3c-.1-.2 0-.4.1-.6.2-.4.7-.5 1.1-.3.1-.1.2.1.3.3zm7.7 5.7l-1.7-7c-.1-.2 0-.4.1-.6.2-.4.7-.5 1.1-.3.2.1.3.3.4.5l.6 2.7 2.8-.7-.6-2.7c-.1-.2 0-.4.1-.6.2-.4.7-.5 1.1-.3.2.1.3.3.3.5l1.7 7.1c.1.2 0 .4-.1.6-.1.2-.3.3-.5.4-.2.1-.4 0-.6-.1-.2-.1-.3-.3-.4-.5l-.7-2.9-2.8.7.7 2.9c.1.2 0 .4-.1.6-.1.2-.3.3-.5.4-.2.1-.4 0-.6-.1-.2-.2-.3-.4-.3-.6zm8.8-3l-.1.9c.1.4-.2.8-.6.9-.4.1-.8-.2-.9-.6 0-.1-.1-.2-.1-.4v-.5l.7-6.8c0-.5.3-.9.7-1 .4-.1.9.1 1.1.5l3.6 5.8c.2.2.3.5.4.8.1.4-.2.9-.6 1-.4.1-.8-.1-.9-.5l-.5-.8-2.8.7zm.4-4.7l-.3 3.1 1.9-.4-1.6-2.7zm8.8.8l-1.4.3-.7 3.1v.1c-.1.2-.3.4-.6.4-.2.1-.4 0-.6-.1-.2-.1-.3-.3-.3-.5v-.7l.6-2.5h-.2c-.1 0-.2-.1-.3-.2-.2-.1-.3-.2-.5-.3-.2-.2-.3-.4-.4-.6-.1-.3-.3-.5-.3-.8-.2-.7-.1-1.5.3-2.2.5-.7 1.3-1.1 2.2-1.3l1.8-.4c.2-.1.4 0 .6.1.2.1.3.3.4.5l1.7 7.1c.1.2 0 .4-.1.6-.1.2-.3.3-.5.4-.2.1-.4 0-.6-.1-.2-.1-.3-.3-.4-.5l-.7-2.4zm-1.3-1.3l1-.2-.6-2.4-1 .2c-.4 0-.8.3-1.1.6-.4.6-.2 1.3.4 1.7.4.3.8.3 1.3.1zm7.4-5l1.7 7.1c.1.2 0 .4-.1.6-.1.2-.3.3-.5.4-.2.1-.4 0-.6-.1-.2-.1-.3-.3-.4-.5l-1.7-7.1c-.1-.2 0-.4.1-.6.1-.2.3-.3.5-.4.2-.1.4 0 .6.1.2.1.4.3.4.5zm2.9 3l2.4 2.5c.2.2.3.4.4.6.1.2 0 .4-.1.6-.1.2-.3.3-.5.4-.3.1-.6 0-.8-.2l-2.5-2.7c-.3-.2-.4-.5-.5-.8v-.9l.9-3.4c.1-.3.3-.5.6-.6.2-.1.4 0 .6.1.2.1.3.3.4.5v.7l-.9 3.2zm5.2 1.7l-.1 1c0 .4-.2.8-.6.9-.4.1-.9-.2-1-.6 0-.1-.1-.2-.1-.3v-.5l.7-6.8c.1-.5.6-.9 1.1-.9.3 0 .6.2.7.4l3.6 5.8c.2.2.3.5.4.8.1.4-.2.9-.6 1-.4.1-.8-.1-.9-.5l-.5-.8-2.7.5zm.4-4.7l-.3 3.1 1.9-.4-1.6-2.7zm10.2-2.2c.2.8.1 1.6-.3 2.2-.5.7-1.2 1.2-2.1 1.3l-1.2.3.5 2.1c.1.2 0 .4-.1.6-.2.4-.7.5-1.1.3-.2-.1-.3-.3-.4-.5l-1.7-7c-.1-.2 0-.4.1-.6.1-.2.3-.3.5-.4l2-.5c.8-.2 1.7-.1 2.4.3.8.4 1.3 1.1 1.4 1.9zm-4 2.3l1.2-.3c.4-.1.8-.3 1-.6.4-.7.2-1.5-.5-1.9-.3-.2-.7-.2-1.1-.1l-1.2.3.6 2.6zm7.8 2.1l-1.5-6.3-1.4.3c-.2.1-.4 0-.6-.1-.3-.2-.5-.7-.3-1 .1-.2.3-.3.5-.3l4.4-1c.2-.1.4 0 .6.1.4.2.5.7.3 1v.1c-.1.2-.3.3-.5.4l-1.4.3 1.5 6.3c.1.2 0 .4-.1.6-.1.2-.3.3-.5.4-.2.1-.4 0-.6-.1-.2-.3-.4-.5-.4-.7zm4.9-2.1v.9c.1.4-.2.8-.6.9-.4 0-.8-.2-.9-.6 0-.1-.1-.2-.1-.3v-.5l.8-6.8c.1-.5.6-.9 1.1-.9.3 0 .6.2.7.4l3.6 5.8c.2.2.3.5.4.8.1.2 0 .4-.1.6-.1.2-.3.3-.5.4-.4.1-.8-.1-.9-.5l-.5-.8-3 .6zm.4-4.7l-.3 3.1 1.9-.4-1.6-2.7z" fill="#000"/><path d="M233.6 90l2.2-.5.7 3.1c-.3.2-.6.4-1 .5-.3.1-.7.3-1 .3-.8.2-1.6.1-2.3-.4-.7-.5-1.2-1.3-1.3-2.2-.2-.9-.1-1.8.3-2.6.5-.8 1.2-1.3 2.1-1.5.6-.1 1.3-.2 1.9 0l-.2 1c-.5-.1-1-.1-1.5 0-.6.1-1.1.4-1.4.9-.3.6-.4 1.2-.2 1.8.1.6.4 1.2.9 1.6.5.3 1 .4 1.6.3.3-.1.7-.2 1-.4l-.4-1.6-1.3.3-.1-.6zm8.2 1.7l-1-1.6-2.3.5-.2 1.9-1 .2.8-6.8 1-.2 3.7 5.7-1 .3zm-1.4-2.4l-1-1.6c-.1-.2-.2-.3-.3-.5-.1-.2-.2-.4-.3-.5 0 .4 0 .8-.1 1.2l-.2 1.7 1.9-.3zm1.8-4.3l1.8-.4c.6-.2 1.3-.2 1.9 0 .5.2.8.6.9 1.1.1.3.1.7-.1 1-.1.3-.4.5-.7.6.8-.1 1.5.4 1.6 1.2.1.5.1 1-.3 1.5-.4.4-.9.7-1.5.8l-2.2.5-1.4-6.3zm1.6 2.3l1-.2c.3-.1.6-.2.9-.4.1-.2.2-.5.1-.8 0-.3-.2-.5-.5-.6-.3-.1-.7-.1-1 0l-.9.2.4 1.8zm.2.8l.5 2 1-.2c.3-.1.6-.2.9-.5.2-.2.2-.6.1-.8-.1-.3-.2-.5-.5-.7-.3-.1-.7-.1-1 0l-1 .2zm8.7 1l-3.4.8-1.5-6.2 3.4-.8.2.9-2.4.6.4 1.7 2.3-.5.2.9-2.3.5.5 2 2.4-.6.2.7zm4.4-2.8c.1.5.1 1-.3 1.4-.4.4-.9.7-1.5.8-.6.2-1.2.2-1.8.1l-.2-1c.3.1.7.1 1 .1.3 0 .6 0 .9-.1.3 0 .6-.2.8-.4.2-.2.2-.5.1-.7-.1-.2-.2-.4-.4-.5-.4-.2-.8-.3-1.2-.3-.5-.1-1-.2-1.4-.5-.3-.3-.5-.6-.6-1-.1-.5 0-1 .3-1.4.3-.4.8-.7 1.3-.8.6-.1 1.2-.1 1.8 0l-.1.9c-.5-.1-1-.1-1.5 0-.3 0-.5.2-.7.4-.1.2-.1.4-.1.6 0 .1.1.3.2.4.1.1.3.2.4.3.3.1.6.2.9.2.4.1.7.2 1.1.3.2.1.4.3.6.4.3.3.4.5.4.8zm3.7.9l-1 .2-1.3-5.4-1.8.4-.2-.9 4.5-1.1.2.9-1.8.4 1.4 5.5zm7.3-5c.3.8.2 1.7-.2 2.5-.9 1.4-2.7 1.8-4.1 1-.7-.5-1.1-1.3-1.3-2.2-.3-.8-.2-1.7.2-2.5.4-.7 1.1-1.2 1.9-1.3.8-.2 1.6-.1 2.3.4.5.5 1 1.2 1.2 2.1zm-4.7 1.1c.1.6.4 1.2.8 1.6.8.6 2 .4 2.6-.5v-.1l.1-.1c.2-.6.2-1.3 0-1.9-.1-.6-.4-1.2-.8-1.6-.8-.6-2-.4-2.6.5v.2c-.2.6-.2 1.3-.1 1.9zm7.1-1l.6 2.5-1 .3-1.5-6.3 1.7-.4c.6-.2 1.2-.2 1.8.1.5.3.8.7.9 1.2.2.7-.1 1.5-.8 1.9l2.4 2.4-1.1.3-2-2.2-1 .2zm-.2-.9l.7-.2c.4 0 .7-.2 1-.5.2-.3.2-.6.1-.9 0-.3-.2-.6-.5-.7-.4-.1-.7-.1-1.1 0l-.7.2.5 2.1zm8.6 1.5l-3.4.8-1.5-6.3 3.4-.8.2.9-2.4.6.4 1.7 2.3-.5.2.8-2.3.5.5 2 2.4-.6.2.9zm1-.8c-.1-.2 0-.4.1-.5.1-.1.2-.3.4-.3.2-.1.4 0 .5.1.1.1.2.3.3.4 0 .2 0 .4-.1.5-.2.3-.6.4-.9.2-.2-.1-.3-.2-.3-.4zm3.1-2.8l.6 2.5-1 .2-1.5-6.3 1.7-.4c.6-.2 1.3-.2 1.8.1.5.3.8.7.9 1.2.2.7-.1 1.5-.8 1.9L287 81l-1 .2-2-2.2-1 .3zm-.3-.8l.7-.2c.4 0 .7-.2 1-.5.2-.3.2-.6.1-.9 0-.3-.2-.6-.5-.7-.4-.1-.7-.1-1.1 0l-.7.1.5 2.2zm8.5-5.1l1 4c.1.4.1.9 0 1.3s-.3.7-.6 1c-.4.3-.8.5-1.2.6-.6.2-1.3.1-1.9-.2-.5-.4-.9-.9-1-1.5l-.9-4 1-.2.9 4c.1.4.3.8.6 1.1.3.2.7.2 1.1.1.7-.1 1.3-.8 1.2-1.5 0-.1-.1-.3-.1-.4l-.9-3.9.8-.4zM135.2 396l5.8 24.6 2.6-.6c.8-.2 1.7-.1 2.4.4 1.4.8 1.8 2.5 1.1 3.9 0 .1-.1.2-.1.2-.5.7-1.2 1.2-2 1.4l-11.3 2.7c-.8.2-1.7.1-2.4-.3-1.4-.8-1.8-2.6-1.1-4 0-.1.1-.1.1-.2.5-.7 1.2-1.2 2-1.4l2.6-.6-5.1-21.7-2.6.6c-.8.2-1.7.1-2.4-.3-1.4-.8-1.8-2.6-1.1-4 0-.1.1-.1.1-.2.4-.7 1.2-1.2 2-1.4l5.7-1.4c.8-.2 1.7-.1 2.4.4.7.4 1.2 1.1 1.3 1.9zm16.8 6.4l2.7-.6c3-.9 6.3-.5 9.1 1 2.6 1.6 4.5 4.3 5 7.4.8 2.8.3 5.9-1.3 8.3-1.7 2.6-4.4 4.3-7.4 4.9-2.7.7-5.5.4-8-.7-2.4-1.1-3.8-2.4-4.2-3.8-.2-.8-.1-1.7.4-2.4.4-.7 1.2-1.2 2-1.4 1-.2 2 .1 2.7.9 1.5 1.5 3.7 2.1 5.7 1.5 1.3-.3 2.5-1.1 3.3-2.2.7-1.2.9-2.5.5-3.8-.3-1.4-1.1-2.6-2.3-3.3-1.2-.7-2.7-.9-4.1-.5l-5.8 1.4c-.8.2-1.7.1-2.4-.3s-1.2-1.1-1.4-1.9l-3-12.7c-.2-.8 0-1.6.4-2.3.4-.7 1.1-1.2 2-1.4l12.6-3c.8-.2 1.7-.1 2.4.4.7.4 1.2 1.1 1.4 1.8.2.8.1 1.6-.4 2.3-.5.7-1.2 1.2-2 1.4l-9.5 2.2 1.6 6.8zm24.3 12.4c-3-2.5-5.2-6.6-6.6-12.3-1.4-5.7-1.2-10.4.4-14 2.3-5.6 8.7-8.4 14.3-6.1.2.1.4.2.5.2 1 .4 1.9 1 2.8 1.8 3 2.5 5.2 6.6 6.6 12.3 1.3 5.7 1.2 10.4-.4 13.9-2.3 5.7-8.8 8.4-14.4 6.1-.2-.1-.3-.1-.5-.2-1-.4-1.9-1-2.7-1.7zm-.5-13.8c.9 4 2.2 6.8 3.9 8.5 1.6 1.7 3.3 2.3 5.1 1.9 1.7-.4 2.9-1.7 3.7-3.9.8-2.2.6-5.3-.3-9.3-.9-4-2.2-6.9-3.9-8.5-1.6-1.6-3.3-2.3-5.1-1.9-1.7.4-2.9 1.7-3.7 3.9-.8 2.3-.6 5.3.3 9.3zm28.8 7.1c-3-2.5-5.2-6.6-6.6-12.3-1.3-5.7-1.2-10.4.4-13.9 2.2-5.6 8.6-8.4 14.3-6.1.2.1.4.2.5.2 1 .5 1.9 1 2.8 1.8 3 2.5 5.2 6.6 6.6 12.3 1.4 5.7 1.2 10.4-.4 13.9-2.3 5.7-8.8 8.4-14.4 6.1-.2-.1-.3-.1-.5-.2-1-.5-1.9-1.1-2.7-1.8zm-.4-13.8c1 4 2.2 6.8 3.9 8.5 1.6 1.7 3.3 2.3 5.1 1.9 1.7-.4 2.9-1.7 3.7-3.9.8-2.2.6-5.3-.3-9.3-.9-4-2.2-6.9-3.9-8.5-1.6-1.7-3.3-2.3-5-1.9-1.7.4-2.9 1.7-3.7 3.9-.8 2.2-.8 5.3.2 9.3zm52-18.3c.8 3 .4 6.1-1.3 8.7-1.6 2.5-4.3 4.2-8.1 5.1l-4.7 1.1 2.1 8.6c.2.8.1 1.6-.4 2.3-1 1.4-2.9 1.9-4.4 1-.7-.4-1.2-1.1-1.4-1.9l-6.5-27.6c-.2-.8-.1-1.6.4-2.3.4-.7 1.2-1.2 2-1.4l7.8-1.8c3.7-.9 6.9-.6 9.5.9 2.6 1.7 4.4 4.3 5 7.3zm-15.6 9.1l4.7-1.1c1.6-.3 3-1.1 3.9-2.4 1.5-2.5.8-5.8-1.7-7.4-1.4-.7-3-.9-4.5-.4l-4.7 1.1 2.3 10.2z" fill="#fff"/><path d="M234.1 386.6l6.5-1.5c1.6-.3 3.1.6 3.5 2.2.4 1.6-.5 3.2-2.1 3.6l-6.5 1.5c-1.6.3-3.1-.6-3.5-2.2-.4-1.6.6-3.2 2.1-3.6zm.9 7.7l16.4-3.9c1.1-.2 2.1.4 2.3 1.5.2 1-.4 2.1-1.4 2.4l-16.4 3.9c-1.1.2-2.1-.5-2.3-1.5-.3-1 .4-2.1 1.4-2.4zm-111.5-29.9c.4 1.5-.4 2.5-2.3 3l-2.1.5-1.8-7.6 4.5-1.1.3 1-3.3.8.5 2.1.9-.2c1.8-.6 2.9-.1 3.3 1.5zm-3.5 2.1l.9-.2c.5-.1.9-.3 1.2-.6.2-.3.3-.7.2-1-.1-.4-.3-.7-.6-.8-.5-.1-1-.1-1.5.1l-.7.2.5 2.3zm3.2-5.8l1.3-.3 1.9 3c.3.4.5.8.7 1.2v-.7c0-.3.1-1.7.4-4.2l1.3-.3-.8 7.1c0 1.1-.7 2-1.8 2.3-.3.1-.5.1-.8.1l-.2-1c.2 0 .4 0 .6-.1.6-.2 1-.7.9-1.4l.1-.6-3.6-5.1zm13.5 5.1l-1.1.3-.5-2.1-3.8.9.5 2.1-1.1.3-.7-3 .5-.1c.3-.8.4-1.6.4-2.4 0-.9 0-1.9-.2-2.8l3.4-.8 1.1 4.8.8-.2.7 3zm-2.7-2.6l-.9-3.8-1.2.3c.1.7.1 1.5.1 2.2 0 .7-.1 1.3-.3 2l2.3-.7zm6.2-6.5l.2 1-1.8.4 1.1 4.8-1.2.3-1.1-4.8-1.8.4-.2-1 4.8-1.1zm6.7 1.5c.2.8.2 1.6-.2 2.4-.4.7-1 1.1-1.8 1.3-.5.1-1 .1-1.5 0-.5-.2-.9-.5-1.2-.9-.3-.4-.6-1-.7-1.5-.2-.8-.1-1.6.2-2.3.4-.7 1-1.1 1.8-1.3.7-.2 1.5-.1 2.1.4.7.4 1.1 1.1 1.3 1.9zm-4.1.9c.3 1.3.9 1.9 1.9 1.7 1-.2 1.3-1 .9-2.3-.3-1.3-.9-1.9-1.9-1.6-.4.1-.8.4-1 .8-.1.4 0 .9.1 1.4zm15.1-.5l-1.5.4-5.1-5.2.1.3c.1.7.4 1.2.5 1.8l.9 4-1.1.3-1.8-7.6 1.5-.3 5 5.2-.2-.9-.3-1.2-.9-4 1.1-.3 1.8 7.5zm8.7-2l-1.3.3-2.3-4.3-.4-.8c-.1-.2-.2-.5-.3-.8 0 .3.1.6 0 .9v.8l-.2 4.8-1.3.3-1.8-3.6-1.9-3.6 1.2-.3 2.1 4.2c.3.6.6 1.2.8 1.8-.1-.3-.1-.7-.1-1v-.9l.2-4.8 1.2-.3 2.3 4.2c.2.4.5 1 .8 1.8-.1-.7-.1-1.3-.1-2v-4.7l1.2-.3-.1 8.3zm4.6-8.2c-.6.1-1.2.6-1.4 1.1-.3.7-.3 1.5-.1 2.3.1.8.5 1.5 1.1 2 .5.4 1.2.5 1.8.3l.9-.3c.3-.1.6-.3.9-.5l.3 1c-.6.4-1.2.6-1.9.8-.9.3-1.9.1-2.7-.4-.8-.7-1.4-1.7-1.6-2.7-.2-.7-.2-1.5-.1-2.2.1-.6.4-1.2.9-1.6.5-.5 1.1-.8 1.8-.9.7-.2 1.5-.2 2.2 0l-.2 1.2c-.3 0-.6-.1-.9-.1h-1zm7.5 5.3l-1.2.3-1.5-6.5-2.2.5-.3-1 5.6-1.3.3 1-2.2.5 1.5 6.5zm9.1-2.1l-1.2.3-.8-3.4-3.4.8.8 3.4-1.2.3-1.8-7.6 1.2-.3.7 3.1 3.4-.8-.7-3.1 1.2-.3 1.8 7.6zm6.2-1.4l-4.1 1-1.8-7.7 4.1-1 .3 1-3 .7.5 2.1 2.8-.7.3 1-2.8.7.6 2.4 3-.7.1 1.2zm3.1-7.9c-.6.1-1.2.5-1.5 1.1-.3.7-.3 1.5-.1 2.3.1.8.5 1.5 1.1 2 .5.4 1.2.5 1.8.3l.9-.3c.3-.1.6-.3.8-.5l.3 1c-.6.4-1.2.6-1.9.8-.9.3-1.9.1-2.7-.4-.8-.7-1.4-1.6-1.6-2.7-.2-.7-.2-1.5-.1-2.2.1-.6.4-1.2.9-1.6.5-.5 1.1-.8 1.8-.9.7-.2 1.5-.2 2.2 0l-.2 1.2c-.3-.1-.6-.2-.9-.2-.2 0-.5 0-.8.1zm10.7.5c.3 1 .2 2.1-.2 3.1-1.1 1.7-3.4 2.3-5.2 1.2-.8-.7-1.4-1.6-1.6-2.7-.3-1-.2-2.1.3-3.1.5-.9 1.3-1.5 2.3-1.7 1-.3 2-.1 2.8.5.8.7 1.4 1.7 1.6 2.7zm-5.7 1.3c.1.8.5 1.5 1.1 2 1 .7 2.4.5 3.1-.6 0 0 0-.1.1-.1l.1-.1c.4-1.5 0-3.1-1-4.3-.5-.4-1.2-.5-1.8-.3-.6.1-1.2.5-1.5 1.1-.3.8-.3 1.6-.1 2.3zm14.3.7l-1.5.3-5.1-5.2.1.3c.2.7.4 1.2.5 1.8l.9 4-1.1.3-1.8-7.5 1.5-.3 5 5.2-.2-.9-.3-1.2-.9-4 1.1-.3 1.8 7.5zm5.7-3.5c.2.6.1 1.3-.3 1.8-.5.5-1.1.9-1.8 1-.7.2-1.5.2-2.2.1l-.3-1.2c.4.1.7.1 1.1.1.3 0 .7 0 1-.1.4-.1.7-.2 1-.5.2-.2.2-.6.2-.8-.1-.3-.2-.5-.5-.6-.5-.2-1-.3-1.5-.4-.6-.1-1.2-.3-1.7-.6-.4-.3-.6-.7-.7-1.2-.1-.6 0-1.2.3-1.7.4-.5 1-.8 1.6-1 .7-.2 1.5-.2 2.2 0l-.1 1.1c-.6-.1-1.2-.1-1.9 0-.3.1-.6.2-.8.5-.1.2-.2.5-.1.8 0 .2.1.3.2.5.1.1.3.2.5.3.4.1.8.2 1.2.2.5.1.9.2 1.3.4.3.1.5.3.7.6.4.1.5.3.6.7zm4.5 1.1l-1.2.3-1.5-6.5-2.2.5-.3-1 5.6-1.3.3 1-2.2.5 1.5 6.5zm3.8-4.1l.7 3-1.2.3-1.8-7.6 2.1-.5c.7-.2 1.5-.2 2.2.1.6.3 1 .9 1.1 1.5.2.9-.2 1.9-1 2.4l2.9 2.9-1.4.3-2.5-2.6-1.1.2zm-.2-1l.8-.2c.4-.1.8-.3 1.1-.6.2-.3.2-.7.1-1.1-.1-.4-.3-.7-.6-.8-.4-.1-.9-.1-1.3 0l-.8.2.7 2.5zm10.3-6.2l1.2 4.9c.1.5.1 1 0 1.6-.1.5-.4.9-.8 1.2-.4.4-1 .6-1.5.7-.8.2-1.6.1-2.3-.3-.7-.4-1.1-1.1-1.3-1.9l-1.2-4.9 1.2-.3 1.1 4.8c.1.5.3 1 .7 1.3.4.2.9.3 1.4.2.9-.1 1.5-.9 1.4-1.8 0-.2-.1-.3-.1-.4l-1.2-4.8 1.4-.3zm5.2-.3c-.6.1-1.2.5-1.5 1.1-.3.7-.3 1.5-.1 2.3.1.8.5 1.5 1.1 2 .5.4 1.2.5 1.8.3l.9-.3c.3-.1.6-.3.9-.5l.3 1c-.6.4-1.2.6-1.9.8-.9.3-1.9.1-2.7-.4-.8-.7-1.4-1.6-1.6-2.7-.2-.7-.2-1.5-.1-2.2.1-.6.4-1.2.9-1.6.5-.5 1.1-.8 1.8-.9.7-.2 1.5-.2 2.2 0l-.2 1.2c-.3-.1-.6-.1-.9-.1h-.9zm7.6 5.3l-1.2.3-1.5-6.5-2.2.5-.3-1 5.6-1.3.3 1-2.2.5 1.5 6.5zm-127.5 39.1c.2.7-.2 1.3-.9 1.5.4-.1.7 0 1.1.2.3.2.5.5.6.8.1.5 0 1-.3 1.4-.5.4-1 .7-1.6.8l-2.7.6-1.4-5.8 2.7-.6c1.4-.2 2.3.1 2.5 1.1zm-1.2.4c0-.2-.2-.4-.4-.4-.3-.1-.5-.1-.8 0l-1.4.3.3 1.4 1.3-.3c.3-.1.6-.2.9-.4.1-.1.2-.4.1-.6zm.8 2.4c0-.2-.2-.5-.4-.5-.3-.1-.7 0-1 0l-1.4.3.4 1.6 1.4-.3c.7-.2 1.1-.5 1-1.1zm6.6-4.3c.2.7-.2 1.3-.9 1.5.4-.1.8 0 1.1.2.3.2.5.5.6.8.1.5 0 1-.3 1.4-.5.4-1 .7-1.6.8l-2.7.6-1.4-5.8 2.7-.6c1.5-.2 2.3.2 2.5 1.1zm-1.1.4c0-.2-.2-.4-.4-.4-.3-.1-.5-.1-.8 0l-1.4.3.3 1.4 1.3-.3c.3-.1.6-.2.9-.4.1-.1.1-.3.1-.6zm.7 2.4c0-.2-.2-.4-.4-.5-.3-.1-.7-.1-1 0l-1.4.3.4 1.6 1.4-.3c.8-.1 1.1-.5 1-1.1zm5.3.7c-.8.2-1.6.1-2.3-.3-.7-.5-1.1-1.2-1.2-2-.2-.8-.2-1.6.1-2.4.3-.7 1-1.1 1.7-1.3.6-.2 1.3-.1 1.9.3.6.4 1 1.1 1.1 1.8l.2.7-3.7.8c.1.5.4.9.7 1.2.4.2.8.3 1.3.1.3-.1.6-.1.9-.3.3-.2.6-.3.8-.5l.2 1c-.2.2-.5.4-.8.5-.2.3-.6.4-.9.4zm-1.4-5c-.3.1-.6.3-.8.6-.2.4-.2.8-.1 1.2l2.5-.6c-.1-.4-.3-.7-.6-1-.3-.2-.7-.3-1-.2zm9.5 3l-1.2.3-1.1-4.8-1.5.4c.2 1 .3 2 .3 3 0 .6-.1 1.1-.3 1.7-.2.4-.5.7-.9.7-.2.1-.5.1-.7 0l-.2-1h.4c.3-.1.5-.5.5-1.4 0-1.3-.2-2.5-.4-3.8l3.8-.9 1.3 5.8zm1.4-1c-.1-.2 0-.4.1-.6.1-.2.3-.3.5-.3.2-.1.4 0 .6.1.2.1.3.3.3.5.1.2 0 .4-.1.6-.1.2-.3.3-.5.3-.2.1-.4 0-.6-.1-.2-.1-.3-.3-.3-.5zm.8-2l-.9.2-1.5-5.3 1.4-.3 1 5.4z" fill="#fff"/><path d="M162.9 274.4c-.7 0-1.5-.3-2-.9-.9-1.1-.7-2.7.4-3.5l30.5-24.2-7.3-20.9-20-1.5c-.9-.1-1.7-.6-2.1-1.5l-6.7-15.3c-.3-.8-.3-1.6.2-2.3.5-.7 1.2-1.1 2-1.2l32.4-.9c.8 0 1.6.4 2.1 1.1l10.7 15.3c.5.7.6 1.6.3 2.4l-2.4 6.1 9.2 8.1 4.7-11.4-4.9-4.4c-.6-.6-.9-1.4-.8-2.2l2.7-18.4c.1-.8.7-1.5 1.4-1.9l29.4-13.6c.8-.3 1.6-.3 2.3.1.7.4 1.2 1.2 1.2 2l.8 16.6c0 .9-.4 1.8-1.2 2.3l-17.2 10.2 2.8 21.9 38.1 8c1.4.3 2.2 1.6 1.9 3-.3 1.3-1.6 2.2-3 1.9l-39.8-8.4c-1-.2-1.8-1.1-2-2.1l-3.2-25.3c-.1-1 .3-2 1.2-2.5l17.3-10.3-.6-11.4-24.8 11.5-2.3 15.8 5.2 4.6c.8.7 1.1 1.8.7 2.8l-6.6 16.2c-.3.8-1 1.3-1.8 1.5-.8.2-1.6 0-2.2-.5l-13.2-11.5c-.8-.7-1.1-1.8-.7-2.8l2.6-6.5-9.1-13.1-27.3.8 4.6 10.5 20.1 1.5c1 .1 1.8.7 2.2 1.7l8.5 24.1c.4 1 0 2.1-.8 2.8L164.6 274c-.7.3-1.2.4-1.7.4zm-.3-77.9c-.8 0-1.7-.4-2.1-1.2-.7-1.2-.3-2.7.9-3.4l33.1-19.9c1.2-.7 2.7-.3 3.4.9.7 1.2.3 2.7-.9 3.4l-33.1 19.9c-.4.2-.9.3-1.3.3z" fill="#000"/><path d="M234.3 179.6h-.2l-38.5-3c-1.4-.1-2.4-1.3-2.3-2.7.1-1.4 1.3-2.4 2.7-2.3l38.5 3c1.4.1 2.4 1.3 2.3 2.7-.1 1.3-1.2 2.3-2.5 2.3zm-51.8-22.8c-1 0-2-.5-2.6-1.5l-16.5-27.8c-.5-.8-.6-1.8-.2-2.7.4-.9 1.1-1.5 2.1-1.7l18.8-4.4c1.6-.4 3.2.6 3.6 2.2.4 1.6-.6 3.2-2.2 3.6l-14.8 3.5 14.4 24.2c.8 1.4.4 3.3-1 4.1-.5.3-1.1.5-1.6.5z" fill="#000"/><path d="M198.6 153h-.2c-1.7-.1-2.9-1.6-2.8-3.2l2-28.1-14.8 3.5c-1.6.4-3.2-.6-3.6-2.2-.4-1.6.6-3.2 2.2-3.6l18.8-4.4c.9-.2 1.9 0 2.6.6.7.6 1.1 1.5 1 2.5l-2.3 32.2c0 1.5-1.4 2.7-2.9 2.7zm23.8 55.1c-.4 0-.7-.1-1-.4-.6-.6-.6-1.5 0-2.1l.9-1c3.6-3.8 8.3-6.4 13.4-7.6.8-.2 1.6.3 1.8 1.1.2.8-.3 1.6-1.1 1.8-4.5 1.1-8.6 3.4-11.9 6.8l-.9 1c-.4.3-.8.4-1.2.4zm-35.4 9.3c-.2 0-.4 0-.5-.1l-1.3-.5c-4.4-1.6-9.1-1.8-13.6-.8-.8.2-1.6-.3-1.8-1.1-.2-.8.3-1.6 1.1-1.8 5.1-1.2 10.4-.9 15.4.9l1.3.5c.8.3 1.2 1.2.9 1.9-.3.6-.9 1-1.5 1z" fill="#000"/><path d="M261.1 168.1c-26.5-30.6-72.8-34-103.4-7.5-11.3 9.8-19.4 22.8-23.1 37.3-3.5 13.3-3.4 27.3 0 42.1 2.3 10.1 6.3 19.8 11.7 28.7 5 8.3 11.5 15.5 19.2 21.3l53.7-16.1-5.3-22.4-13.7 3.2 2.6 11.1-34 10c-9.8-8.8-17.1-23.3-20.7-38.4-2.8-11.2-2.8-22.9.1-34.1 2.7-10.5 8.2-20 15.9-27.6 7.8-7.7 17.6-13 28.2-15.3 21.6-5.4 44.3 1.8 58.8 18.7 7.5 8.8 12.8 19.2 15.3 30.5 4.2 18 2.2 34.2-6.2 48.5l11.9 7.4c5.3-8.3 8.7-17.7 9.8-27.5 1.2-10.8.5-21.7-2.1-32.2-3.4-14.8-9.6-27.3-18.7-37.7z" fill="#000"/><g filter="url(#filter1_d)"><path d="M192.3 128L423.6 13.8c4.8-2.4 10.7-.4 13 4.4L585 318.9c2.4 4.8.4 10.7-4.4 13L349.3 446.1c-4.8 2.4-10.7.4-13-4.4L187.9 141c-2.4-4.8-.4-10.6 4.4-13z" fill="url(#paint1_linear)"/></g><path d="M226.3 145.4l3.1 6.3c.1.2.1.4 0 .6-.2.4-.6.6-1 .5-.2-.1-.4-.2-.4-.4l-2.8-5.6-2.6 1.3 2.8 5.6c.1.2.1.4 0 .6-.1.2-.2.4-.4.5-.2.1-.4.1-.6 0-.2-.1-.4-.2-.4-.4l-3.1-6.3c-.1-.2-.1-.4 0-.6.1-.2.2-.4.4-.4l4-2c.2-.1.4-.1.6 0 .1 0 .3.1.4.3zm9.4-.7c.6 1 .8 2.2.5 3.4-.4 1.8-2.3 2.9-4.1 2.5-.2 0-.4-.1-.6-.2-2.1-1.1-3.3-3.5-2.9-5.9.4-1.8 2.2-2.9 4.1-2.5.2 0 .4.1.6.2 1.1.5 2 1.4 2.4 2.5zm-1 2.9c.1-.8-.1-1.6-.5-2.3-.3-.7-.8-1.3-1.5-1.7-.5-.3-1.1-.3-1.7 0-.5.2-.9.8-1 1.3-.1.8.1 1.6.5 2.3.3.7.8 1.3 1.5 1.7.5.3 1.1.3 1.6 0 .7-.2 1.1-.7 1.1-1.3zm3.5 1.5l-.7-1.5c-.1-.2-.1-.4 0-.6.1-.2.3-.4.5-.5l-1.4-6.3c-.1-.4.1-.9.5-1l2.3-1.2c.2-.1.4-.1.6 0 .2.1.4.2.5.4l2.8 5.6.2-.1c.2-.1.4-.1.6 0 .2 0 .4.2.4.3l.7 1.5c.1.2.1.4 0 .6-.1.2-.2.4-.4.5-.2.1-.4.1-.6 0-.2 0-.4-.2-.4-.4l-.4-.8-4.1 2.1.4.8c.1.2.1.4 0 .6-.1.2-.2.4-.4.5-.2.1-.4.1-.6 0-.3-.1-.5-.3-.5-.5zm-.1-8.8c.3 1.3.7 3.1 1.2 5.6l2.3-1.2-2.5-5-1 .6zm8.1 2.2l.1.9c.2.4-.1.9-.5 1-.2.1-.3.1-.5 0s-.4-.2-.5-.4c-.1-.1-.1-.2-.2-.3v-.3l-.1-.1-.8-6.6c-.1-.5.1-1 .6-1.2.4-.1.8 0 1 .4l4.7 4.6c.2.2.4.4.5.6.2.4 0 .9-.4 1.1-.3.2-.7.1-1-.2l-.6-.7-2.3 1.2zm-.6-4.6l.4 3 1.7-.8-2.1-2.2zm9.4-4.4c.4.7.4 1.5.2 2.2-.3.8-1 1.4-1.7 1.7l-1.1.5.9 1.9c.1.2.1.4 0 .6-.1.2-.2.4-.4.5-.2.1-.4.1-.6 0-.2-.1-.4-.2-.4-.4l-3.1-6.2c-.1-.2-.1-.4 0-.6.1-.2.2-.4.4-.4l1.8-.9c.7-.4 1.6-.5 2.4-.3.7.2 1.3.7 1.6 1.4zm-3.4 3.1l1.1-.6c.4-.2.6-.4.8-.8.1-.3.1-.7-.1-1-.1-.3-.4-.6-.8-.7-.4-.1-.8 0-1.1.1l-1.1.5 1.2 2.5zm11.6-5.5c.6 1 .8 2.2.5 3.4-.4 1.8-2.3 2.9-4.1 2.5-.2 0-.4-.1-.6-.2-2.1-1.1-3.3-3.5-2.9-5.9.4-1.8 2.2-2.9 4-2.5.2 0 .4.1.6.2 1.1.6 2 1.4 2.5 2.5zm-1 3c.1-.8-.1-1.6-.5-2.3-.3-.7-.8-1.3-1.5-1.7-.5-.3-1.1-.3-1.7-.1-.5.3-.9.8-1 1.3-.1.8.1 1.6.5 2.3.3.7.8 1.3 1.5 1.8.9.5 1.9.2 2.4-.7l.3-.6zm2.1-7.4l1 1.9c.1.3.4.5.6.6.3.1.6.1.9-.1l1.4-.7-1.5-3c-.1-.2-.1-.4 0-.6.2-.4.6-.6 1-.5.2.1.4.2.4.4l3.1 6.3c.1.2.1.4 0 .6-.1.2-.2.4-.4.5-.2.1-.4.1-.6 0-.2 0-.4-.2-.4-.4l-.9-1.9-1.4.7c-.6.4-1.4.5-2.1.3-.6-.2-1.2-.7-1.5-1.3l-1-2c-.1-.2-.1-.4 0-.6.2-.4.6-.6 1-.5.1 0 .3.1.4.3zm8.6 3.5l-3.1-6.3c-.1-.2-.1-.4 0-.6.2-.4.6-.6 1-.5.2 0 .4.2.4.4l1.2 2.4 2.6-1.3-1.2-2.4c-.1-.2-.1-.4 0-.6.2-.4.6-.6 1-.5.2.1.3.2.4.4l3.1 6.3c.1.2.1.4 0 .6-.1.2-.2.4-.4.5-.2.1-.4.1-.6 0-.2-.1-.4-.2-.4-.4l-1.3-2.5-2.6 1.2 1.3 2.6c.1.2.1.4 0 .6-.1.2-.2.4-.4.5-.2.1-.4.1-.6 0-.1-.1-.3-.2-.4-.4zm7.9-4.8l.1.9c.1.4-.1.8-.4 1-.2.1-.4.1-.6 0-.2-.1-.4-.2-.5-.4-.1-.1-.1-.2-.2-.3v-.3l-.1-.1-.8-6.6c-.1-.4.1-.9.5-1.1.4-.2.9-.1 1.2.3l4.7 4.6c.2.2.4.4.5.6.2.4 0 .9-.4 1.1-.4.2-.8.1-1-.3l-.6-.7-2.4 1.3zm-.6-4.5l.4 3 1.7-.8-2.1-2.2zm8.7-1.3l-1.3.6v3.2c0 .1-.1.2-.1.3-.2.3-.6.5-1 .3-.2-.1-.4-.2-.4-.4 0-.1-.1-.2-.1-.3v-.4l.1-2.5h-.1c-.1 0-.2 0-.4-.1s-.4-.1-.5-.2c-.2-.1-.4-.3-.5-.4-.2-.2-.4-.4-.5-.7-.4-.6-.4-1.4-.1-2.1.4-.8 1-1.4 1.8-1.7l1.6-.8c.2-.1.4-.1.6 0 .2.1.4.2.4.4l3.1 6.3c.1.2.1.4 0 .6-.1.2-.2.4-.4.5-.2.1-.4.1-.6 0-.2-.1-.4-.2-.5-.4l-1.1-2.2zm-1.5-.8l.9-.4-1-2.1-.9.4c-.4.1-.7.4-.9.8-.2.6.1 1.3.7 1.5.4 0 .8-.1 1.2-.2zm6.1-6.6l3.1 6.3c.1.2.1.4 0 .6-.1.2-.2.4-.4.5-.2.1-.4.1-.6 0-.2-.1-.4-.2-.4-.4l-3.1-6.3c-.1-.2-.1-.4 0-.6.1-.2.2-.4.4-.4.2-.1.4-.1.6 0 .1 0 .3.2.4.3zm3.5 2.2l2.9 1.8c.2.1.4.3.5.5.1.2.1.4 0 .6-.1.2-.2.4-.4.5-.3.1-.6.1-.8 0l-3-1.9c-.3-.1-.5-.4-.7-.6-.1-.1-.1-.3-.1-.4v-.5l.2-3.4c0-.3.2-.5.5-.7.2-.1.4-.1.6 0 .2.1.4.2.5.4 0 .1.1.2.1.3v.4l-.3 3zm5.3.4l.1.9c.1.4-.1.8-.4 1-.4.1-.8 0-1-.4-.1-.1-.1-.2-.2-.3v-.4l-.8-6.6c-.1-.4.1-.9.5-1.1.4-.2.9-.1 1.2.3l4.7 4.6c.2.2.4.4.5.6.2.4 0 .9-.4 1.1-.4.2-.8.1-1-.3l-.6-.7-2.6 1.3zm-.6-4.5l.4 3 1.7-.8-2.1-2.2zm9.4-4.5c.4.7.4 1.5.2 2.2-.3.8-1 1.4-1.7 1.7l-1.1.5.9 1.9c.1.2.1.4 0 .6-.2.4-.6.6-1 .5-.2-.1-.3-.2-.4-.4l-3.1-6.2c-.1-.2-.1-.4 0-.6.1-.2.2-.4.4-.5l1.8-.9c.7-.4 1.6-.5 2.4-.3.7.3 1.3.8 1.6 1.5zm-3.4 3.1l1.1-.5c.4-.2.7-.4.8-.8.1-.3.1-.7-.1-1-.1-.3-.4-.6-.8-.7-.4-.1-.8 0-1.1.1l-1.1.6 1.2 2.3zm8 .2l-2.8-5.6-1.3.7c-.2.1-.4.1-.6 0-.4-.1-.6-.5-.5-.9.1-.2.2-.4.4-.4l4-1.9c.2-.1.4-.1.6 0 .4.1.6.5.5.9v.1c-.1.2-.2.4-.4.4l-1.3.6 2.8 5.6c.1.2.1.4 0 .6-.1.2-.2.4-.4.5-.2.1-.4.1-.6 0-.1-.2-.3-.4-.4-.6zm4.4-3.1l.2.9c.2.4 0 .9-.5 1.1-.4.2-.9 0-1.1-.5-.1-.1-.1-.2-.2-.3v-.4l-.8-6.6c-.1-.5.3-1 .9-1.1.3 0 .6.1.8.3l4.7 4.6c.2.2.4.4.5.6.1.2.1.4 0 .6-.1.2-.2.4-.4.5-.4.2-.8.1-1-.3l-.6-.7-2.5 1.3zm-.6-4.5l.3 3 1.7-.8-2-2.2z" fill="#000"/><path d="M373 77.9l2-1 1.4 2.8c-.3.3-.5.5-.8.7-.3.2-.6.4-1 .6-.7.4-1.5.5-2.2.2-.8-.4-1.4-1-1.8-1.9-.4-.8-.5-1.6-.3-2.5.3-.8.9-1.5 1.7-1.8.6-.3 1.2-.4 1.8-.5l.1.9c-.5 0-1 .1-1.5.4-.5.2-1 .7-1.1 1.3-.2.6-.1 1.2.2 1.8.2.6.7 1 1.2 1.3.5.2 1.1.2 1.6-.1l.9-.6-.7-1.4-1.1.6-.4-.8zm8.3-.3l-1.3-1.3-2.1 1.1.2 1.8-1 .5-.7-6.6 1-.5 4.8 4.5-.9.5zm-2-2l-1.3-1.3c0-.1-.2-.2-.4-.4l-.4-.4c.1.4.2.8.2 1.2l.2 1.7 1.7-.8zm.9-4.4l1.7-.8c.5-.3 1.2-.5 1.8-.5.5 0 .9.3 1.1.8.2.3.2.6.2.9-.1.3-.3.6-.5.8.3-.1.7-.1 1.1 0 .3.1.6.4.7.7.2.4.3 1 .1 1.4-.3.5-.7.9-1.2 1.1l-2 1-3-5.4zm2.1 1.8l1-.5c.3-.1.6-.3.7-.6.1-.2.1-.5-.1-.7-.1-.2-.3-.4-.6-.4s-.7.1-1 .3l-.9.4.9 1.5zm.3.8l.9 1.8 1-.5c.3-.1.6-.4.8-.6.1-.3.1-.6-.1-.8-.1-.3-.3-.4-.6-.5-.3 0-.7.1-1 .2l-1 .4zm8.6-1.2l-3.1 1.5-2.7-5.5 3.1-1.5.4.8-2.2 1.1.7 1.5 2.1-1 .4.8-2.1 1 .9 1.7 2.2-1.1.3.7zm3.7-3.6c.2.4.3 1 0 1.4-.3.5-.7.9-1.3 1.1-.5.3-1.1.4-1.7.5l-.4-.9c.3 0 .7 0 1-.1.3-.1.6-.2.8-.3.3-.1.5-.3.7-.6.1-.2.1-.5-.1-.7-.1-.2-.3-.3-.5-.4-.4-.1-.8-.1-1.2 0-.5.1-1 0-1.4-.2-.3-.2-.6-.4-.8-.8-.2-.4-.2-.9 0-1.3.2-.5.6-.9 1.1-1.1.5-.3 1.1-.4 1.8-.4l.1.9c-.5 0-1 .1-1.5.3-.2.1-.4.3-.6.5-.1.2-.1.4 0 .6l.3.3c.1.1.3.1.5.1h2c.2 0 .5.1.7.3.3.3.4.5.5.8zm3.7 0l-.9.4-2.4-4.7-1.6.8-.4-.8 4.2-2.1.4.8-1.6.8 2.3 4.8zm6.1-6.5c.4.7.5 1.6.4 2.4-.6 1.5-2.3 2.4-3.9 1.9-1.5-.8-2.4-2.5-2.1-4.2.6-1.5 2.2-2.3 3.8-1.9.8.4 1.4 1 1.8 1.8zm-4.3 2.1c.2.6.6 1 1.2 1.3 1 .4 2-.1 2.4-1.1v-.1c.1-.6 0-1.2-.4-1.8-.2-.5-.7-1-1.2-1.3-1-.4-2 .1-2.4 1.1v.1c0 .7.1 1.3.4 1.8zm6.6-2.5l1.1 2.2-.9.5-2.7-5.6 1.6-.8c.5-.3 1.2-.4 1.8-.4.5.1.9.5 1.1 1 .4.7.2 1.5-.3 2l2.8 1.7-1 .5-2.4-1.6-1.1.5zm-.3-.8l.6-.3c.4-.1.7-.4.8-.7.1-.3.1-.6-.1-.8-.1-.3-.3-.5-.6-.5-.4 0-.7.1-1.1.3l-.6.3 1 1.7zm8.6-.5l-3.1 1.5-2.7-5.6 3.1-1.5.4.8-2.2 1.1.7 1.5 2.1-1 .4.8-2.1 1 .9 1.7L415 60l.3.8zm.8-1c-.1-.2-.1-.3 0-.5s.2-.3.3-.4c.2-.1.3-.1.5 0s.3.2.4.4c.1.2.1.3 0 .5-.1.3-.5.5-.8.4-.2-.1-.4-.2-.4-.4zm2.4-3.4l1.1 2.2-1 .5-2.8-5.5 1.6-.8c.5-.3 1.2-.4 1.8-.4.5.1.9.5 1.1.9.4.7.2 1.5-.4 2l2.8 1.7-1 .5-2.4-1.6-.8.5zm-.4-.7l.6-.3c.4-.1.6-.4.8-.7.1-.3.1-.6-.1-.8-.1-.3-.4-.5-.7-.5-.4 0-.7.1-1.1.3l-.6.3 1.1 1.7zm7.1-6.7l1.8 3.6c.2.4.3.8.3 1.2 0 .4-.2.7-.4 1-.3.4-.7.7-1.1.8-.6.3-1.2.4-1.9.2-.6-.2-1.1-.6-1.3-1.2l-1.8-3.6 1-.5 1.7 3.5c.1.4.4.7.8.9.4.1.8 0 1.1-.1.7-.2 1-1 .8-1.6 0-.1-.1-.2-.2-.3l-1.7-3.5.9-.4zm-78 344c-.5-1-1.3-1.7-2.4-2-1.1-.4-2.3-.3-3.3.3-1.6.8-2.7 2.4-3.3 4.8-.2.9-.8 1.7-1.6 2.1-.7.4-1.6.5-2.4.3-.7-.2-1.4-.8-1.7-1.5-.7-1.4-.4-3.2.8-5.6 1.3-2.4 3.3-4.3 5.8-5.5 2.5-1.3 5.3-1.5 8-.7 2.5.7 4.6 2.4 5.7 4.8 1.4 2.8 1.7 5.9.8 8.9l-3.6 12.9.1.2 8.2-4.1c1.4-.8 3.2-.3 4 1.1.8 1.4.3 3.2-1.1 4l-.3.2-13.6 6.8c-.7.4-1.6.5-2.4.2-.8-.2-1.4-.7-1.7-1.4-.4-.6-.5-1.4-.5-2.1.1-.9.3-1.8.5-2.7l4.1-15c.2-.6.4-1.3.5-1.9.1-.6.1-1.3 0-1.9 0-.8-.2-1.6-.6-2.2zm16.6-4.1l2.5-1.2c2.7-1.5 6-1.9 9-1.1 2.9.9 5.2 3 6.4 5.8 1.3 2.5 1.5 5.5.5 8.1-1.1 2.8-3.3 5.1-6.1 6.3-2.4 1.2-5.2 1.7-7.8 1.2-2.6-.5-4.2-1.4-4.8-2.6-.4-.7-.5-1.6-.2-2.3.3-.8.9-1.4 1.6-1.8.9-.4 2-.3 2.8.2 1.8 1.1 4 1.1 5.8.1 1.2-.5 2.2-1.6 2.7-2.8.4-1.2.3-2.6-.3-3.7-.6-1.2-1.6-2.2-2.9-2.6-1.4-.4-2.8-.2-4.1.5l-5.3 2.6c-.7.4-1.6.4-2.4.2-.8-.2-1.4-.7-1.7-1.4l-5.6-11.3c-.3-.7-.4-1.5-.1-2.2.3-.8.9-1.4 1.6-1.8l11.5-5.7c.7-.4 1.6-.4 2.4-.2 1.5.4 2.3 2 1.9 3.4 0 .1 0 .1-.1.2-.3.8-.9 1.4-1.6 1.7l-8.7 4.3 3 6.1zM390 395c-3.4-1.6-6.4-5-8.9-10.1s-3.4-9.5-2.6-13.2c1.1-6.1 7-10.1 13.1-9 1.1.2 2.1.5 3 1 3.5 1.6 6.5 5 8.9 10.1 2.5 5.1 3.3 9.5 2.6 13.2-1.2 6.1-7.1 10.1-13.2 9-1-.3-2-.6-2.9-1zm-3.3-12.9c1.8 3.6 3.6 5.9 5.5 7.1 1.9 1.2 3.7 1.4 5.3.6 1.6-.8 2.5-2.3 2.7-4.6.2-2.2-.5-5.1-2.3-8.7-1.8-3.6-3.6-6-5.5-7.1-1.9-1.2-3.7-1.4-5.3-.6-1.6.8-2.5 2.3-2.7 4.6-.2 2.3.5 5.1 2.3 8.7zm29.3 0c-3.5-1.6-6.5-5-8.9-10.1-2.5-5.1-3.3-9.5-2.6-13.2 1.1-6.1 7-10.1 13.1-9 1.1.2 2.1.5 3 1 3.4 1.7 6.4 5 8.9 10.1s3.4 9.5 2.6 13.2c-1.1 6.1-7 10.1-13.1 9-1.1-.2-2.1-.5-3-1zm-3.3-12.8c1.8 3.6 3.6 5.9 5.5 7.1 1.9 1.2 3.7 1.4 5.3.6 1.6-.8 2.5-2.3 2.7-4.6.2-2.3-.5-5.2-2.3-8.7-1.7-3.5-3.6-6-5.6-7.1-2-1.2-3.7-1.4-5.3-.6-1.6.8-2.5 2.3-2.7 4.6-.2 2.3.6 5.1 2.4 8.7zm46.5-29.4c1.4 2.6 1.6 5.7.6 8.5-1.1 2.8-3.3 5-6.8 6.7l-4.3 2.1 3.7 7.6c.4.7.4 1.5.1 2.2-.7 1.6-2.4 2.4-4 2-.8-.2-1.4-.7-1.7-1.4l-12.1-24.5c-.4-.7-.4-1.5-.1-2.2.3-.8.9-1.4 1.6-1.8l7.2-3.6c3.4-1.7 6.6-2.1 9.4-1.3 2.8 1 5.2 3 6.4 5.7zM446 352l4.3-2.1c1.4-.6 2.6-1.7 3.3-3.2.9-2.7-.5-5.7-3.2-6.6-1.5-.4-3.1-.1-4.4.6l-4.4 2.2 4.4 9.1z" fill="#fff"/><path d="M439.9 355.1l5.9-2.9c1.4-.7 3.1-.1 3.8 1.3.7 1.4.1 3.1-1.3 3.8l-5.9 2.9c-1.4.7-3.1.1-3.8-1.3-.7-1.4-.1-3.1 1.3-3.8zm2.5 7.1l15.1-7.4c1-.5 2.1-.1 2.6.9s.1 2.1-.9 2.6l-15.1 7.4c-1 .5-2.1.1-2.6-.9s-.1-2.1.9-2.6zm-125.3-2.9l2-1c.7-.4 1.4-.6 2.2-.6.6.1 1.1.5 1.3 1 .2.3.2.7.2 1.1-.1.4-.3.7-.6.9.4-.1.9-.1 1.3 0 .4.2.7.5.9.9.3.5.3 1.2.1 1.7-.3.6-.9 1.1-1.5 1.4l-2.5 1.2-3.4-6.6zm2.5 2.2l1.1-.5c.4-.1.7-.4.9-.7.1-.3.1-.6-.1-.9-.1-.3-.4-.5-.7-.5-.4 0-.8.1-1.2.3l-1 .5 1 1.8zm.4 1l1.1 2.2 1.2-.6c.4-.1.7-.4.9-.8.1-.3.1-.7-.1-1-.1-.3-.4-.5-.7-.6-.4 0-.9.1-1.2.3l-1.2.5zm9.8-4.3c.4.7.5 1.5.3 2.3-.2.7-.8 1.3-1.4 1.6-.4.2-.9.3-1.4.3-.5 0-.9-.2-1.3-.5s-.8-.8-1-1.3c-.4-.7-.5-1.5-.3-2.2.5-1.4 2.1-2.2 3.6-1.8.6.3 1.2.9 1.5 1.6zm-3.7 1.8c.6 1.2 1.3 1.6 2.2 1.1.9-.5 1-1.2.4-2.4s-1.3-1.5-2.2-1.1c-.4.2-.7.5-.8.9 0 .6.1 1.1.4 1.5zm7.6-6.8l.4.8-1.7.8 2.1 4.3-1.1.5-2.1-4.3-1.7.8-.4-.9 4.5-2zm7 2.9c-.5.3-1 .4-1.6.4l-.4-.8c.6 0 1.1-.1 1.6-.4.8-.3 1.1-1.2.8-1.9 0-.1-.1-.2-.1-.2l-2.2 1.1-.4-.8 2.3-1.2c-.2-.4-.5-.7-.9-.8-.4-.1-.8 0-1.1.1-.4.2-.8.5-1.1.9l-.7-.6.6-.6c.2-.2.5-.4.7-.5.7-.4 1.4-.4 2.2-.2 1.4.8 2.2 2.4 1.9 4-.3.7-.9 1.3-1.6 1.5zm5-8.9l.4.9-1.7.8 2.1 4.3-1.1.5-2.1-4.3-1.7.8-.4-.9 4.5-2.1zm6.8-.2c.4.7.5 1.5.3 2.3-.2.7-.8 1.3-1.4 1.6-.4.2-.9.3-1.4.3-.5 0-.9-.2-1.3-.5s-.8-.8-1-1.3c-.4-.7-.5-1.5-.3-2.2.2-.7.8-1.3 1.5-1.6.6-.4 1.4-.4 2.1-.2.7.3 1.2.9 1.5 1.6zm-3.7 1.8c.6 1.2 1.3 1.6 2.2 1.1.9-.4 1-1.2.4-2.4s-1.3-1.5-2.2-1.1c-.4.2-.7.5-.7.9 0 .6.1 1.1.3 1.5zm9.2-1.3l-1.2.6.4-2.8c-.8.2-1.5-.2-1.8-.9-.2-.4-.3-.9-.1-1.4.3-.5.7-.9 1.2-1.1l2.3-1.2 2.5 5.1-1.1.5-1-2-1 .5-.2 2.7zm-1.6-3.7c.1.2.3.4.6.4s.6-.1.9-.2l1-.5-.8-1.5-1.2.6c-.3.1-.5.3-.6.5 0 .3.1.5.1.7zm11-7.3l2.5 5.1-1.1.5-2.1-4.3-2.3 1.1 2.1 4.3-1.1.5-2.5-5.1 4.5-2.1zm7.3-.5c.4.7.5 1.5.3 2.3-.2.7-.8 1.3-1.4 1.6-.4.2-.9.3-1.4.3-.5 0-.9-.2-1.3-.5s-.8-.8-1-1.3c-.4-.7-.5-1.5-.3-2.2.2-.7.8-1.3 1.5-1.6.6-.4 1.4-.4 2.1-.2.7.3 1.2.9 1.5 1.6zm-3.7 1.8c.6 1.2 1.3 1.6 2.2 1.1.9-.4 1-1.2.4-2.4s-1.3-1.5-2.2-1.1c-.4.2-.7.5-.7.9 0 .6.1 1.1.3 1.5zm4.8-5.5l1 2.1 2.4-1.2-1-2.1 1.1-.5 2.5 5.1-1.1.5-1.1-2.2-2.4 1.2 1.1 2.2-1.1.5-2.5-5.2 1.1-.4zm6.1-3l1.3 2.6c.2.4.4.9.6 1.4l.6-5.2 1.3-.7 2.5 5.1-1.1.5-1.3-2.6-.3-.7-.3-.7-.5 5.2-1.3.7-2.5-5.1 1-.5zm10.4 0v-.2c-.1-.5-.2-.9-.2-1.2l-.3-3.4 1.4-.7 2.5 5.1-1 .5-2-4.1v.3c.1.6.2 1 .2 1.3l.3 3.3-.8.4-2.5-2.2c-.4-.4-.8-.7-1.1-1.1l2 4.1-1 .5-2.5-5.1 1.4-.7 2.4 2.2c.5.2.8.5 1.2 1zm8.3-2.8l-.6-.6c0 .4-.2.7-.4 1-.2.3-.5.5-.9.6-.4.2-.9.3-1.4.2-.4-.2-.8-.5-1-.9-.3-.5-.3-1 0-1.5.4-.6.9-1 1.6-1.3l.9-.4-.1-.3c-.1-.3-.3-.5-.6-.6-.3-.1-.6-.1-.8.1-.3.1-.5.3-.7.5l-.6.6-.7-.6c.5-.6 1-1.1 1.7-1.4.5-.3 1.1-.4 1.7-.3.5.2 1 .6 1.2 1.1l1.7 3.5-1 .3zm-2 0c.4-.2.6-.4.8-.8.1-.4.1-.8-.1-1.1l-.2-.4-.7.3c-.4.2-.7.5-1 .8-.2.3-.1.6 0 .9.1.2.2.4.5.4.2.1.4 0 .7-.1zm9.8-7.1c.4.7.5 1.5.4 2.3-.2.7-.7 1.3-1.4 1.5-.6.3-1.3.4-1.9.2-.7-.3-1.2-.8-1.5-1.4l-1.1.6 1.1 2.2-1.1.6-2.5-5.1 1.1-.5 1 2.1 1.1-.6c-.3-.6-.3-1.3-.1-2 .2-.6.7-1.1 1.3-1.3.6-.3 1.3-.4 2-.2s1.3.8 1.6 1.6zm-3.5 1.7c.2.5.5.9.9 1.2.6.3 1.4 0 1.7-.6 0-.1.1-.2.1-.3 0-.5-.1-1-.4-1.5-.2-.5-.5-.9-.9-1.2-.6-.3-1.4 0-1.7.6 0 .1-.1.2-.1.3 0 .6.2 1.1.4 1.5zm-76 54.9l-4.8-4.7c.5.8.9 1.6 1.2 2.3l1.6 3.3-1 .5-3.3-6.7 1.6-.7 4.6 4.4-.8-6.3 1.6-.8 3.3 6.8-1 .5-1.7-3.3-.6-1.3-.5-1 .8 6.7-1 .3zm10.2-9.2c.5.9.7 2 .4 3-.3.9-.9 1.7-1.8 2.1-.9.5-1.9.6-2.8.2-.9-.4-1.7-1.2-2.1-2.2-.5-.9-.7-2-.4-3 .3-.9 1-1.7 1.9-2.1.9-.5 1.9-.6 2.8-.2.9.4 1.6 1.2 2 2.2zm-5.2 2.5c.3.7.8 1.3 1.4 1.7 1.2.4 2.5-.2 3-1.4v-.1c.1-1.5-.6-3-1.9-3.8-.6-.3-1.2-.2-1.8.1-.6.3-1 .8-1.2 1.4 0 .7.2 1.5.5 2.1zm10.7-1l-1.1.5-2.9-5.8-2 1-.5-1 5.1-2.5.5 1-2 1 2.9 5.8zm8.4-4.2l-1.1.5-1.5-3.1-3.1 1.5 1.5 3.1-1.1.6-3.3-6.8 1.1-.6 1.4 2.8 3.1-1.5-1.4-2.7 1.1-.6 3.3 6.8zm5.6-2.7l-3.8 1.9-3.3-6.8 3.8-1.9.5 1-2.7 1.3.9 1.8 2.6-1.3.5 1-2.6 1.3 1.1 2.1 2.7-1.4.3 1zm1.2-4l1.3 2.7-1.1.6-3.3-6.8 1.9-.9c.6-.4 1.4-.5 2.1-.4.6.2 1.1.6 1.4 1.2.4.8.2 1.8-.4 2.5l3.4 2.1-1.2.6-3-1.9-1.1.3zm-.4-1l.8-.4c.4-.2.8-.5 1-.8.1-.3.1-.7-.1-1-.1-.3-.4-.6-.8-.6s-.8.1-1.2.4l-.7.4 1 2zm6.7 1.2l-3.3-6.8 1.1-.6 2.9 5.8 2.8-1.4.5 1-4 2zm9.5-8.8c.5.9.7 2 .4 3-.7 1.9-2.8 3-4.7 2.4-1-.4-1.7-1.2-2.1-2.2-.5-.9-.7-2-.4-3 .3-.9 1-1.7 1.9-2.1.9-.5 1.9-.6 2.8-.2.9.4 1.7 1.1 2.1 2.1zm-5.2 2.5c.3.7.8 1.3 1.4 1.7 1.2.4 2.5-.2 3-1.4v-.1c.1-1.5-.6-3-1.9-3.8-.6-.3-1.2-.2-1.8.1-.6.2-1 .8-1.2 1.4 0 .7.2 1.5.5 2.1zm12.2-6.1c.5.9.6 2 .3 3-.4 1-1.2 1.8-2.3 2.2l-1.9.9-3.3-6.8 2.1-1c.9-.5 2-.7 3-.4.9.5 1.7 1.2 2.1 2.1zm-1.2.6c-.8-1.6-2-2.1-3.5-1.3l-1 .5 2.4 4.9.8-.4c1.3-.4 2-1.8 1.5-3.1 0-.2-.1-.4-.2-.6zm8.2.3l-3.9 1.9-3.3-6.8 3.8-1.9.5 1-2.7 1.3.9 1.8 2.6-1.3.5 1-2.6 1.3 1.1 2.1 2.7-1.4.4 1zm.8-1.2c-.2-.3-.1-.8.2-1 0 0 .1 0 .1-.1.2-.1.4-.1.6 0 .2.1.4.2.4.4.1.2.1.4 0 .6-.1.2-.2.4-.4.4-.2.1-.4.1-.6 0 0 .1-.2-.1-.3-.3zm.4-2l-.8.4-2.6-4.6 1.3-.6 2.1 4.8z" fill="#fff"/><path d="M416.9 145.4c-10.6-7.5-23.1-12-36.1-12.9-27.1-1.5-53.1 11.3-68.4 33.8-7.2 10.9-11.2 23.5-11.7 36.5-.6 13.3 2.4 26.5 8.9 39.6 4.4 9 10.3 17.2 17.3 24.3 6.6 6.7 14.4 12 23.1 15.6l48.6-27.5-9.8-19.9-12.5 6.2 4.9 9.8-30.7 17.4c-11.4-6.1-21.4-18-28.1-31.5-5.1-9.9-7.5-21-7-32.2.5-10.6 3.8-20.8 9.6-29.6 12.5-18.2 33.5-28.6 55.5-27.4 10.6.7 20.8 4.4 29.4 10.5 9.1 6.5 16.4 15.2 21.2 25.3 7.9 16 9.3 31.7 4.1 47.1l13.1 4.3c3.4-9 4.7-18.6 3.7-28.1-1.1-10.4-4.1-20.5-8.8-29.9-6.7-13.4-15.4-23.8-26.3-31.4z" fill="#000"/><path d="M345.2 241.4h-.4c-.9-.2-1.7-.8-2-1.8l-4.6-15.7-15.5-5.1c-.9-.3-1.6-1.1-1.7-2-.1-.9.3-1.9 1.1-2.4l13.5-9.3v-16.4c0-1 .5-1.8 1.4-2.2.9-.4 1.9-.3 2.6.3l13 10 15.5-5.1c.9-.3 1.9-.1 2.6.6.7.7.9 1.7.6 2.6l-5.4 15.4 9.6 13.2c.6.8.6 1.8.2 2.6-.4.8-1.3 1.4-2.3 1.3l-16.3-.4-9.6 13.2c-.8.8-1.5 1.2-2.3 1.2zM329 215.7l12 3.9c.8.3 1.4.9 1.6 1.7l3.6 12.1 7.4-10.2c.5-.7 1.3-1 2.1-1l12.6.3-7.4-10.2c-.5-.7-.6-1.5-.3-2.3l4.2-11.9-12 3.9c-.8.3-1.6.1-2.3-.4l-10-7.7v12.6c0 .8-.4 1.6-1.1 2.1l-10.4 7.1z" fill="#000"/><path d="M390.6 219h-.4c-.9-.2-1.7-.8-2-1.8l-4.6-15.7-15.6-5.1c-.9-.3-1.6-1.1-1.7-2-.1-.9.3-1.9 1.1-2.4l13.5-9.3v-16.4c0-1 .5-1.8 1.4-2.2.9-.4 1.9-.3 2.6.3l13 9.9 15.5-5.1c.9-.3 1.9 0 2.6.6.7.7.9 1.7.6 2.6L411 188l9.6 13.2c.6.8.6 1.8.2 2.6-.4.8-1.3 1.4-2.3 1.3l-16.4-.4-9.6 13.2c-.4.7-1.2 1.1-1.9 1.1zm-16.3-25.7l12 3.9c.8.3 1.4.9 1.6 1.7l3.6 12.1 7.4-10.2c.5-.7 1.3-1.1 2.1-1l12.6.3-7.4-10.2c-.5-.7-.6-1.5-.3-2.3l4.2-11.9-12 3.9c-.8.3-1.6.1-2.3-.4l-10-7.7v12.6c0 .8-.4 1.6-1.1 2.1l-10.4 7.1zm-49.296 19.598l-18.205 8.983 3.097 6.277 18.205-8.983-3.097-6.277z" fill="#000"/><path d="M425.704 163.192l-18.205 8.983 3.098 6.278 18.205-8.983-3.098-6.278z" fill="#000"/><path d="M364.8 196.5l8.3-4" stroke="#000" stroke-width="7" stroke-linejoin="round"/><g filter="url(#filter2_d)"><path d="M442.7 80.1l256.5-37c5.3-.8 10.3 2.9 11.1 8.3l48.1 333.4c.8 5.3-2.9 10.3-8.3 11.1l-256.5 37c-5.3.8-10.3-2.9-11.1-8.3L434.4 91.2c-.8-5.3 3-10.3 8.3-11.1z" fill="url(#paint2_linear)"/></g><path d="M469.7 107.4l1 7c0 .2 0 .4-.1.6-.1.2-.3.3-.5.3s-.4 0-.6-.1c-.2-.1-.3-.3-.3-.5l-.9-6.2-2.9.5.9 6.2c0 .2 0 .4-.1.6-.3.3-.8.4-1.1.2-.2-.1-.3-.3-.3-.5l-1-7c0-.2 0-.4.1-.6.1-.2.3-.3.5-.3l4.4-.6c.2 0 .4 0 .6.1.2-.1.3.1.3.3zm9.3 2.2c.2 1.2 0 2.4-.6 3.4-1 1.6-3.1 2.1-4.7 1.1-.2-.1-.3-.2-.5-.4-.9-.8-1.4-1.9-1.5-3.1-.2-1.2 0-2.4.6-3.4 1-1.6 3.1-2.1 4.7-1.1.2.1.4.2.5.4.8.8 1.4 1.9 1.5 3.1zm-1.9 2.5c.6-1.5.3-3.2-.6-4.4-.4-.4-1-.7-1.6-.6-.6.1-1.1.5-1.3 1-.6 1.5-.3 3.2.6 4.5.7.7 1.8.8 2.5.1.2-.2.3-.4.4-.6zm2.8 2.6l-.2-1.6c0-.2 0-.4.2-.6.2-.2.4-.3.6-.3l.7-6.5c0-.5.3-.8.8-.9l2.6-.4c.2 0 .4 0 .6.1.2.1.3.3.3.5l.9 6.2h.2c.2 0 .4 0 .6.1.2.1.3.3.3.5l.2 1.6c0 .2 0 .4-.2.5-.3.3-.8.4-1.1.2-.2-.1-.3-.3-.3-.5l-.1-.9-4.6.7.1.9c0 .2 0 .4-.2.6-.1.2-.3.3-.5.3s-.4 0-.6-.1c-.1-.1-.3-.2-.3-.4zm2.7-8.4c-.1 1.3-.3 3.2-.6 5.7l2.6-.4-.8-5.5-1.2.2zm7 4.5l-.2.9c0 .4-.3.7-.7.8-.4 0-.8-.3-.9-.7v-.3c0-.1 0-.2.1-.4v-.1l1.3-6.5c.1-.5.6-.9 1.2-.8.3.1.5.2.7.5l3.1 5.9c.2.2.3.5.3.8 0 .5-.3.9-.7.9-.4 0-.7-.2-.9-.5l-.4-.8-2.9.3zm.9-4.5l-.6 2.9 1.9-.3-1.3-2.6zm10.4-1.4c.1.8-.1 1.5-.6 2.1-.6.6-1.4 1-2.2 1.1l-1.2.2.3 2.1c0 .2 0 .4-.1.6-.1.2-.3.3-.5.3s-.4 0-.6-.1c-.2-.1-.3-.3-.3-.5l-1.1-6.9c0-.2 0-.4.2-.6.1-.2.3-.3.5-.3l2-.3c.8-.2 1.7 0 2.4.5s1.1 1.1 1.2 1.8zm-4.2 2l1.2-.2c.4 0 .7-.2 1-.5.2-.3.3-.6.2-1 0-.4-.2-.7-.5-.9-.3-.2-.7-.3-1.1-.2l-1.2.2.4 2.6zm12.7-1.7c.2 1.2 0 2.4-.6 3.4-1 1.6-3.1 2.1-4.7 1.1-.2-.1-.3-.2-.5-.4-1.7-1.7-2.1-4.4-.9-6.5 1-1.6 3.1-2.1 4.7-1.1.2.1.4.2.5.4.8.8 1.4 1.9 1.5 3.1zm-1.9 2.5c.6-1.5.3-3.2-.6-4.4-.4-.4-1-.7-1.6-.6-.6.1-1.1.5-1.3 1-.6 1.5-.3 3.2.6 4.5.7.7 1.8.8 2.5.1.2-.2.3-.4.4-.6zm4.4-6.4l.3 2.2c0 .3.2.6.4.8.3.2.6.2.9.2l1.6-.2-.5-3.3c0-.2 0-.4.1-.6.3-.3.8-.4 1.1-.2.2.1.3.3.3.5l1 7c0 .2 0 .4-.1.6-.1.2-.3.3-.5.3s-.4 0-.6-.1c-.2-.1-.3-.3-.3-.5l-.3-2.1-1.6.2c-.7.1-1.5 0-2.1-.4-.6-.4-.9-1.1-1-1.8l-.3-2.3c0-.2 0-.4.1-.6.3-.3.8-.4 1.1-.2.2.1.3.3.4.5zm7.1 6.1l-1-7c-.1-.2 0-.4.1-.6.3-.3.8-.4 1.1-.2.2.1.3.3.3.5l.4 2.7 2.9-.5-.4-2.6c0-.2 0-.4.1-.6.3-.3.8-.4 1.1-.2.2.1.3.3.3.5l1 7c0 .2 0 .4-.1.6-.1.2-.3.3-.5.3s-.4 0-.6-.1c-.2-.1-.3-.3-.3-.5l-.4-2.8-2.9.5.5 2.8c0 .2 0 .4-.1.6-.1.2-.3.3-.5.3s-.4 0-.6-.1c-.2-.2-.4-.4-.4-.6zm9-2.2l-.2.9c0 .4-.3.7-.7.8-.2 0-.4 0-.6-.1-.2-.1-.3-.3-.3-.5v-.3c0-.1 0-.2.1-.4v-.1l1.3-6.5c0-.5.4-.8.8-.9.5 0 .9.2 1 .6l3.1 5.9c.1.2.2.5.3.8.1.4-.3.9-.7.9-.4.1-.8-.2-.9-.6l-.4-.8-2.8.3zm.9-4.5l-.6 2.9 1.9-.3-1.3-2.6zm8.7 1.5l-1.4.2-1 2.9v.1l-.2.2c-.1.1-.3.2-.4.2-.2 0-.4 0-.6-.1-.2-.1-.3-.3-.3-.5v-.3c0-.1 0-.2.1-.3v-.1l.8-2.3h-.2c-.1 0-.2-.1-.3-.2-.2-.1-.3-.2-.4-.4-.2-.2-.3-.4-.4-.6-.5-.9-.3-2 .3-2.9.6-.6 1.4-1 2.2-1.1l1.8-.3c.2 0 .4 0 .6.1.2.1.3.3.3.5l1 6.9c.1.2 0 .4-.1.6-.1.2-.3.3-.5.3s-.4 0-.6-.1c-.2-.1-.3-.3-.3-.5l-.4-2.3zm-1.2-1.3l1-.1-.3-2.3-1 .1c-.4 0-.8.2-1.1.5-.4.5-.3 1.3.2 1.7.3.1.8.2 1.2.1zm7.9-4.3l1 7c0 .2 0 .4-.1.6-.3.3-.8.4-1.2.2-.2-.1-.3-.3-.3-.5l-1-7c0-.2 0-.4.2-.5.1-.2.3-.3.5-.3s.4 0 .6.1c.1 0 .2.2.3.4zm2.6 3.1l2.2 2.6c.2.2.3.4.3.6 0 .2 0 .4-.1.6-.1.2-.3.3-.6.3-.3.1-.6-.1-.8-.3l-2.2-2.8c-.2-.2-.4-.5-.5-.8v-.4c0-.1 0-.3.1-.4V99l1.2-3.2c.1-.3.4-.5.6-.5.2 0 .4 0 .6.1.2.1.3.3.3.5 0 .1 0 .2-.1.3 0 .1 0 .2-.1.3v.1l-.9 3.1zm4.9 2.1l-.2.9c0 .4-.3.7-.7.8-.4 0-.8-.3-.9-.7 0-.1 0-.2-.1-.3 0-.1 0-.2.1-.3v-.1l1.3-6.5c.1-.4.4-.8.8-.9.5 0 .9.2 1 .6l3.1 5.9c.1.2.2.5.3.8 0 .4-.3.8-.7.9-.4.1-.8-.2-.9-.6l-.5-.8-2.6.3zm.9-4.5l-.6 2.9 1.9-.3-1.3-2.6zm10.4-1.3c.1.8-.1 1.5-.5 2.1-.6.6-1.4 1-2.3 1.1l-1.2.2.3 2.1c0 .2 0 .4-.2.6-.3.3-.8.4-1.1.2-.2-.1-.3-.3-.3-.5l-.9-7c0-.2 0-.4.1-.6.1-.2.3-.3.5-.3l2-.3c.8-.2 1.7 0 2.4.5.7.4 1.1 1.1 1.2 1.9zm-4.2 1.9l1.2-.2c.4 0 .8-.2 1.1-.5.2-.3.3-.6.2-1 0-.4-.2-.7-.5-.9-.3-.2-.7-.3-1.1-.2l-1.2.2.3 2.6zm7.6 2.6l-.9-6.2-1.4.2c-.2 0-.4 0-.6-.1-.3-.2-.4-.7-.2-1 .1-.2.3-.3.5-.3l4.4-.6c.2 0 .4 0 .6.1.3.2.4.7.2 1v.1c-.1.2-.3.3-.5.3l-1.4.2.9 6.2c0 .2 0 .4-.2.6-.1.2-.3.3-.5.3s-.4 0-.6-.1c-.2-.3-.3-.5-.3-.7zm5.1-1.5l-.2.9c0 .4-.3.8-.8.9-.4 0-.8-.3-.9-.8 0-.1 0-.2-.1-.3 0-.1 0-.2.1-.3v-.1l1.3-6.5c.1-.5.6-.9 1.2-.8.3.1.6.2.7.5l3.1 5.9c.1.2.2.5.3.8 0 .2 0 .4-.1.6-.1.2-.3.3-.5.3-.4 0-.8-.2-.9-.6l-.4-.8-2.8.3zm.9-4.6l-.6 2.9 1.9-.3-1.3-2.6z" fill="#000"/><path d="M630.9 88.6l2.3-.3.4 3.1c-.3.2-.7.3-1 .4-.3.1-.7.2-1.1.2-.8.2-1.6 0-2.2-.5-.6-.6-1-1.4-1.1-2.3-.3-1.6.7-3.2 2.3-3.6.1 0 .3-.1.4-.1.6-.1 1.3-.1 1.9.1l-.2.9c-.5-.2-1-.2-1.5-.1-.6.1-1.1.4-1.5.8-.3.5-.5 1.2-.4 1.8 0 .6.3 1.2.7 1.7.4.4 1 .5 1.6.4.4-.1.7-.1 1.1-.3l-.2-1.6-1.3.2-.2-.8zm8 2.2l-.9-1.6-2.4.3-.4 1.8-1.1.2 1.4-6.5 1.1-.2 3.2 5.8-.9.2zm-1.2-2.4l-.8-1.6c-.1-.2-.2-.3-.3-.5-.1-.2-.2-.4-.2-.5 0 .4-.1.8-.2 1.2l-.3 1.7 1.8-.3zm2.2-4l1.8-.3c.6-.1 1.3-.1 1.9.1.4.2.7.6.7 1.1 0 .3 0 .6-.2.9-.2.3-.4.5-.7.6.4 0 .7.1 1 .3.3.2.4.6.4.9.1.5 0 1-.4 1.4-.4.4-1 .7-1.5.7l-2.2.3-.8-6zm1.4 2.4l1-.1c.3 0 .6-.1.9-.3.2-.2.3-.5.2-.7 0-.3-.2-.5-.4-.6-.3-.1-.7-.1-1-.1l-1 .1.3 1.7zm.1.8l.3 2 1.1-.2c.3 0 .7-.2.9-.4.2-.2.2-.5.2-.8 0-.3-.2-.5-.4-.7-.3-.1-.7-.1-1-.1l-1.1.2zm8.6 1.6l-3.5.5-.9-6.1 3.5-.5.1.9-2.5.4.3 1.6 2.3-.4.1.8-2.3.3.3 1.9 2.5-.4.1 1zm4.6-2.3c.1.5-.1 1-.4 1.4-.4.4-1 .7-1.6.7-.6.1-1.2.1-1.8-.1l-.1-1c.3.1.6.2.9.2h.9c.3 0 .6-.1.8-.4.2-.2.2-.4.2-.7 0-.2-.2-.4-.4-.5-.4-.2-.7-.3-1.1-.4-.5-.1-.9-.3-1.3-.6-.3-.3-.5-.6-.5-1-.1-.5 0-.9.4-1.3s.9-.6 1.4-.7c.6-.1 1.2 0 1.8.1l-.2.9c-.5-.1-1-.2-1.5-.1-.3 0-.5.1-.7.3-.1.2-.2.4-.1.6 0 .1.1.3.2.4.1.1.2.2.4.3l.9.3c.4.1.7.2 1.1.4.2.1.4.3.5.5.1.2.2.4.2.7zm3.5 1.1l-1 .1-.8-5.2-1.8.3-.1-.9 4.6-.7.1.9-1.8.3.8 5.2zm7.9-4.2c.2.8 0 1.7-.4 2.4-1.1 1.3-2.9 1.5-4.3.6-1.2-1.3-1.5-3.1-.7-4.7.5-.6 1.2-1.1 2-1.1.8-.2 1.6 0 2.2.5.7.6 1.1 1.4 1.2 2.3zm-4.7.7c0 .6.3 1.2.7 1.6.8.6 2 .5 2.7-.3v-.1c.3-.6.3-1.2.2-1.8 0-.6-.3-1.2-.7-1.7-.8-.6-2-.5-2.6.3v.1c-.4.6-.5 1.3-.3 1.9zm7-.4l.3 2.5-1.1.2-.9-6.2 1.7-.3c.6-.1 1.3-.1 1.8.2.4.3.7.7.8 1.3.1.8-.3 1.5-1 1.8l2.2 2.5-1.2.2-1.8-2.3-.8.1zm-.1-.9l.7-.1c.4 0 .7-.2 1-.4.2-.2.2-.5.2-.8 0-.3-.2-.6-.4-.7-.3-.1-.7-.2-1.1-.1l-.7.1.3 2zm8.5 2.2l-3.5.5-.9-6.2 3.5-.5.1.8-2.5.4.2 1.7 2.3-.3.1.8-2.3.3.3 1.9 2.5-.4.2 1zm1-.7c0-.2 0-.4.1-.5.1-.1.3-.2.4-.2.2 0 .4 0 .5.1.1.1.2.3.2.5s0 .3-.1.5c-.2.3-.6.3-.9.1-.1-.2-.2-.3-.2-.5zm3.3-2.5l.4 2.5-1 .1-.9-6.2 1.7-.2c.6-.1 1.3-.1 1.8.2.4.3.7.7.8 1.3.1.7-.3 1.5-1 1.8l2.1 2.5-1 .1-1.8-2.2-1.1.1zm-.1-.8l.7-.1c.4 0 .7-.2 1-.4.2-.2.2-.5.2-.8 0-.3-.2-.6-.5-.7-.3-.1-.7-.2-1.1-.1l-.7.1.4 2zm8.9-4.2l.6 4c.1.4 0 .9-.1 1.2-.1.4-.4.7-.7.9-.4.3-.8.4-1.3.5-.6.1-1.3 0-1.9-.4-.5-.4-.8-1-.9-1.6l-.6-4 1-.1.6 3.9c0 .4.2.8.5 1.1.3.2.7.3 1.1.2.7 0 1.3-.6 1.3-1.3 0-.1 0-.3-.1-.4l-.6-3.9 1.1-.1zM503.5 378.1c-.9.1-1.8.5-2.6 1-.6.4-1.2 1-1.6 1.6-.4.6-.8 1.1-1.3 1.6-.4.5-1 .8-1.6.9-.8.2-1.7 0-2.4-.5-.6-.4-1.1-1.1-1.2-1.9-.2-1.5.6-3.2 2.5-5.1 2-1.9 4.5-3.1 7.3-3.4 2.8-.5 5.6.2 7.9 1.7 2.1 1.3 3.6 3.5 4 6 .2 1 .1 2-.1 3-.2.8-.5 1.6-.9 2.3l-1.2 1.5c-.3.3-.7.6-1.1.8l-.5.3.1.4.6.1c.5.1.9.3 1.4.5.7.3 1.3.7 1.8 1.2.7.6 1.2 1.3 1.6 2.1.6 1 .9 2.2 1.1 3.3.4 2.6-.4 5.3-2.1 7.4-1.9 2.3-4.6 3.7-7.5 4.1-2.8.5-5.6 0-8.1-1.3s-3.8-2.7-4-4.1c-.1-.8.1-1.6.6-2.2.9-1.2 2.6-1.5 4-.8.6.3 1.2.7 1.7 1.2.6.5 1.3.9 2 1.2.9.3 1.9.4 2.8.3 1.3-.1 2.6-.8 3.4-1.8.8-1.1 1.1-2.4.9-3.7-.1-1.3-.8-2.4-1.8-3.1-1.2-.7-2.7-1-4-.7l-.5.1c-.9.1-1.8-.1-2.5-.5s-1.1-1.1-1.3-1.8c-.1-.8.2-1.6.7-2.1.6-.7 1.4-1.1 2.3-1.2l.5-.1c1.2-.1 2.4-.7 3.3-1.6.8-.8 1.1-2 .9-3.1-.2-1.1-.8-2.1-1.7-2.7-1-.8-2.2-1.1-3.4-.9zm21.5 22c-2.8-2.6-4.6-6.8-5.4-12.4-.8-5.6-.3-10.1 1.7-13.5 3-5.5 9.8-7.5 15.3-4.5.9.5 1.8 1.2 2.6 1.9 2.8 2.6 4.6 6.8 5.4 12.4.8 5.6.3 10.1-1.6 13.4-3 5.5-9.9 7.4-15.4 4.4-1-.4-1.8-1-2.6-1.7zm.9-13.3c.6 3.9 1.6 6.8 3.1 8.5 1.5 1.7 3.1 2.5 4.9 2.2 1.8-.3 3.1-1.4 4-3.5.9-2.1 1.1-5.1.5-9.1-.6-4-1.6-6.8-3.1-8.6-1.5-1.7-3.1-2.5-4.8-2.2-1.7.3-3.1 1.4-4 3.5-1 2.1-1.2 5.2-.6 9.2zm28 9.1c-2.8-2.6-4.6-6.8-5.4-12.4-.8-5.6-.3-10.1 1.7-13.5 3-5.5 9.9-7.5 15.3-4.5.9.5 1.8 1.2 2.6 1.9 2.8 2.7 4.6 6.8 5.4 12.4.8 5.6.3 10.1-1.6 13.4-3 5.5-9.9 7.5-15.4 4.5-1-.4-1.9-1-2.6-1.8zm.8-13.3c.6 3.9 1.6 6.8 3.1 8.5 1.5 1.7 3.1 2.5 4.9 2.2 1.8-.3 3.1-1.4 4-3.5.9-2.1 1.1-5.1.5-9-.6-3.9-1.6-6.8-3.1-8.6-1.5-1.7-3.1-2.5-4.9-2.2-1.8.3-3.1 1.4-4 3.5-.9 2.1-1 5.2-.5 9.1zm28.1 9.2c-2.8-2.6-4.6-6.8-5.4-12.4-.8-5.6-.3-10.1 1.7-13.4 3-5.5 9.9-7.5 15.3-4.5.9.5 1.8 1.2 2.6 1.9 2.8 2.7 4.6 6.8 5.4 12.4.8 5.6.3 10.1-1.6 13.4-3 5.5-9.9 7.5-15.4 4.5-1-.6-1.9-1.2-2.6-1.9zm.8-13.4c.6 3.9 1.6 6.8 3.1 8.5 1.5 1.7 3.1 2.5 4.8 2.2 1.8-.3 3.1-1.4 4-3.5.9-2.1 1.1-5.1.5-9.1-.6-4-1.6-6.8-3.1-8.6-1.5-1.7-3.1-2.5-4.8-2.2-1.7.3-3.1 1.4-4 3.5-.9 2.1-1.1 5.2-.5 9.2zm53.5-13.5c.6 2.9-.2 6-2.1 8.3-1.9 2.3-4.7 3.7-8.6 4.3l-4.8.7 1.2 8.4c.1.8-.1 1.6-.6 2.2-1.1 1.3-3 1.6-4.5.6-.7-.4-1.1-1.1-1.2-1.9l-3.9-27.1c-.1-.8.1-1.6.6-2.2.5-.7 1.3-1.1 2.1-1.2l7.9-1.1c3.8-.5 7 0 9.4 1.7 2.6 1.6 4.2 4.3 4.5 7.3zm-16.3 7.5l4.8-.7c1.6-.1 3-.8 4.1-2 1.7-2.3 1.3-5.6-1-7.3h-.1c-1.3-.8-2.9-1.1-4.4-.8l-4.8.7 1.4 10.1z" fill="#fff"/><path d="M613.6 373.5l6.6-1c1.6-.2 3 .9 3.3 2.4.2 1.6-.9 3-2.4 3.3l-6.6 1c-1.6.2-3-.9-3.3-2.4-.3-1.7.8-3.1 2.4-3.3zm.1 7.5l16.7-2.4c1.1-.2 2 .6 2.2 1.6.2 1.1-.6 2-1.6 2.2l-16.7 2.4c-1.1.2-2-.6-2.2-1.6-.2-1.1.5-2.1 1.6-2.2zm-118.5-39.5c.1.7-.1 1.4-.5 1.9-.6.5-1.3.9-2.1.9l-.8.1.4 2.8-1.2.2-1.1-7.5 2.2-.3c.7-.2 1.5-.1 2.2.3.4.4.8.9.9 1.6zm-3.6 1.9l.7-.1c.5 0 1-.2 1.3-.5.3-.3.4-.7.3-1.1 0-.4-.2-.7-.5-.9-.4-.2-.8-.2-1.3-.1l-.9.1.4 2.6zm8.2 2.9c-.8.2-1.6 0-2.2-.4-.6-.5-1-1.2-1.1-2-.2-.8 0-1.6.4-2.3.4-.6 1.1-1 1.8-1.1.7-.1 1.3 0 1.9.4.5.5.9 1.1.9 1.8l.1.7-3.8.5c0 .5.3.9.6 1.2.4.3.8.3 1.3.2.3 0 .6-.1.9-.2.3-.1.6-.3.9-.4l.1 1c-.3.2-.6.3-.9.4-.3.1-.6.1-.9.2zm-1-5c-.4 0-.7.2-.9.5-.2.3-.3.7-.2 1.1l2.6-.4c0-.4-.2-.7-.5-1-.2-.2-.6-.3-1-.2zm8.1 3.8l-.4-.8c-.2.3-.4.6-.7.8-.3.2-.7.3-1 .3-.5.1-1 0-1.4-.3-.4-.3-.6-.7-.7-1.2-.1-.5.1-1.1.5-1.4.6-.4 1.2-.7 1.9-.8l1-.1v-.3c0-.3-.2-.6-.4-.8-.2-.2-.5-.2-.8-.2-.3 0-.6.1-.8.3-.3.1-.5.3-.7.4l-.5-.8c.3-.2.6-.4 1-.5.3-.1.7-.2 1.1-.3.6-.1 1.2 0 1.7.2.4.3.7.8.7 1.4l.6 3.8-1.1.3zm-1.9-.5c.4 0 .7-.2 1-.5.2-.3.3-.7.2-1.1l-.1-.5-.7.1c-.4 0-.8.2-1.2.5-.2.2-.3.5-.3.8 0 .2.1.4.3.6.3 0 .5.1.8.1zm9.1-.5l-1.3.2-.7-4.7-1.5.2c.1 1 .1 1.9 0 2.9 0 .6-.2 1.1-.4 1.6-.2.4-.6.6-1 .6h-.7l-.1-1h.4c.3-.1.6-.5.7-1.3.1-1.2.1-2.5-.1-3.7l3.9-.6.8 5.8zm2.5-3.9l1.4-.2c1.6-.2 2.5.2 2.6 1.3.1.5-.1 1-.4 1.4-.5.4-1.1.6-1.7.7l-2.6.4-.8-5.7 1.2-.2.3 2.3zm2.8 1.3c0-.2-.2-.5-.4-.5-.3-.1-.6-.1-.9-.1l-1.3.2.2 1.6 1.4-.2c.3 0 .6-.1.9-.3 0-.2.1-.4.1-.7zm3.2-4.4l.3 2.3 2.7-.4-.3-2.3 1.2-.2.8 5.7-1.2.2-.4-2.4-2.7.4.4 2.5-1.2.2-.8-5.7 1.2-.3zm7.2 1.3l1.2-.2c.6-.1 1.2-.1 1.8.2.4.2.7.7.8 1.2.1.5 0 1-.4 1.4-.5.4-1.1.6-1.7.7l-2.4.3-.8-5.7 1.2-.2.3 2.3zm2.5 1.3c0-.2-.2-.5-.4-.5-.3-.1-.6-.1-.9-.1l-1.1.2.2 1.6.9-.1c.4 0 .7-.2 1-.4.3-.2.4-.5.3-.7zm3.6 1.3l-1.2.2-.8-5.7 1.2-.2.8 5.7zm2-6.2l.4 2.9c.1.5.1 1 .1 1.5l2.2-4.8 1.5-.2.8 5.7-1.2.2-.4-2.9-.1-.8-.1-.8-2.2 4.8-1.5.2-.8-5.7 1.3-.1zm1.4-.9c-.6.1-1.1.1-1.7-.2-.4-.3-.7-.7-.8-1.2l1-.1c0 .2.1.4.2.6.1.1.2.2.4.3h.6c.3 0 .5-.1.7-.3.2-.2.2-.5.2-.8l1.1-.2c.1.5-.1 1-.4 1.4-.2.2-.7.5-1.3.5zm14.2 4.5l-1.2.2-.4-3.4-3.5.5.5 3.4-1.2.2-1.1-7.5 1.2-.2.4 3.1 3.5-.5-.4-3.1 1.2-.2 1 7.5zm6.2-.9l-4.2.6-1.1-7.5 4.2-.6.1 1-3 .4.3 2 2.8-.5.1 1-2.8.4.3 2.4 3-.4.3 1.2zm5.7-2.9c.1.6-.1 1.2-.5 1.7-.5.5-1.2.8-1.9.9-.7.1-1.5.1-2.2-.1l-.2-1.2c.4.1.7.2 1.1.2h1.1c.4 0 .7-.2 1-.4.2-.2.3-.5.2-.8 0-.3-.2-.5-.4-.7-.4-.2-.9-.4-1.4-.5-.6-.1-1.1-.4-1.6-.7-.3-.3-.6-.8-.6-1.2-.1-.6.1-1.2.4-1.6.5-.5 1.1-.7 1.7-.8.7-.1 1.5 0 2.2.2l-.2 1.1c-.6-.2-1.2-.2-1.9-.2-.3 0-.6.2-.9.4-.2.2-.3.5-.2.7 0 .2.1.3.2.5.1.1.3.3.5.3.4.1.7.3 1.1.3.5.1.9.3 1.3.5.7.2 1 .8 1.2 1.4zm7.9-2.9c.2 1 0 2.1-.5 3-.6.8-1.5 1.3-2.4 1.4-1 .2-2-.1-2.8-.7-.8-.7-1.2-1.7-1.3-2.7-.2-1 0-2.1.5-3 .6-.8 1.5-1.3 2.5-1.4 1-.2 2 .1 2.8.7.6.7 1.1 1.6 1.2 2.7zm-5.8.8c.1.8.4 1.5.9 2 1 .8 2.5.6 3.2-.4 0 0 0-.1.1-.1.6-1.4.3-3-.6-4.2-.5-.4-1.1-.6-1.8-.5-.6 0-1.2.4-1.6 1-.3.7-.3 1.5-.2 2.2zm9.4-1.7l1.3-3.7 1.3-.2-1.8 5 .4 2.9-1.2.2-.4-2.9-3.2-4.2 1.4-.2 2.2 3.1zm9.4 2.9l-1.1-2-2.9.4-.4 2.2-1.3.2 1.7-8 1.3-.2 3.9 7.1-1.2.3zm-1.5-3l-1-1.9-.3-.6c-.1-.3-.2-.5-.3-.6 0 .5-.1 1-.2 1.4l-.4 2.1 2.2-.4zm7 2.2l-3.1-6c.2.9.4 1.8.5 2.6l.5 3.7-1.1.2-1.1-7.4 1.7-.2 2.9 5.7 1.2-6.3 1.7-.2 1.1 7.5-1.2.2-.5-3.7-.2-1.5-.2-1.1-1.3 6.5h-.9zm6.1-1.6c-.1-.4.1-.8.5-.9.1 0 .1-.1.2-.1.2 0 .4 0 .6.1.2.1.3.3.3.5s0 .4-.1.6c-.1.2-.3.3-.5.3s-.4 0-.6-.1c-.2 0-.3-.2-.4-.4zm1-1.8l-.9.1-1-5.2 1.4-.2.5 5.3z" fill="#fff"/><path d="M639.5 191.5c-3.9-5.4-10.4-8.2-16.9-7.2l-24.1 3.5c-4 5.3-5.6 11.9-4.6 18.5l.1.5.1.4c.3 1.8.9 3.6 1.6 5.3.1.3.3.6.4.9.1.3.3.5.4.8.1.3.2.4.3.6l.6.9.3.4.7 1c.2.3.4.5.6.8.1.1.2.3.3.4l.2.3.2.2c8.9 10.3 24.5 11.4 34.8 2.4 1-.9 1.9-1.8 2.7-2.8 3.3-4 5.3-8.9 5.7-14 .1-1.7.1-3.5-.2-5.2-.5-2.8-1.6-5.4-3.2-7.7zm-39.1 0l21.7-3.1c2.7-.4 5.4-.1 8 .8l-31.1 4.5c.4-.7.9-1.5 1.4-2.2zm-3 5.3l37-5.3c.8.6 1.5 1.3 2.2 2 .5.5.9 1 1.3 1.6l-41.6 6c.2-1.5.6-3 1.1-4.3zm-1.5 7.1l43.2-6.2c.4.9.6 1.9.7 2.9l.1 1-43.6 6.3c-.2-1.2-.4-2.6-.4-4zm13.7 18.9l21.8-3.1c-6.3 4.5-14.4 5.7-21.8 3.1zm25.5-6.5l-29.9 4.3c-1.5-1-2.9-2.2-4.2-3.5l37.1-5.4c-.8 1.7-1.8 3.2-3 4.6zm4.2-7.5l-40.2 5.8c-.8-1.2-1.4-2.5-1.9-3.8l42.9-6.2c-.2 1.4-.4 2.8-.8 4.2zm-58.2-18.5l-24.1 3.5c-6.6.9-12 5.5-14.2 11.7v.1c-.9 2.6-1.1 5.4-.7 8.1 2 13.5 14.5 22.8 28 20.8 6.9-1 13-4.9 16.9-10.7.7-1.1 1.4-2.3 1.9-3.5l.1-.3c0-.1 0-.2.1-.4.1-.1.1-.3.2-.5l.3-.9c.1-.4.2-.7.4-1.1l.1-.5c.1-.3.2-.7.3-1.1.1-.4.1-.4.1-.6 0-.2.1-.6.2-.9.1-.3.1-.6.2-.9.2-1.5.2-3 .1-4.6l-.1-.9-.1-.4-.1-.5c-.9-6.5-4.3-12.4-9.6-16.4zm7.6 18.8l-43.7 6.3c-.1-.3-.1-.7-.1-1-.2-1-.2-2-.1-3l43.2-6.2c.3 1.2.6 2.5.7 3.9zm-30.3-11.5l21.6-3.1c.7.5 1.4 1 2.1 1.6l-31.1 4.5c2.2-1.5 4.8-2.6 7.4-3zm-10.9 6.4l37-5.3c.9 1.2 1.7 2.4 2.4 3.8l-41.6 6c.2-.6.5-1.3.8-1.9.2-.3.3-.6.5-.9.2-.6.6-1.2.9-1.7zm-1.6 14.3v-.2l42.9-6.2c-.1 1.4-.4 2.9-.8 4.3l-40.1 5.8c-.9-1.2-1.5-2.4-2-3.7zm12.4 11.9l21.8-3.1c-6.3 4.5-14.4 5.7-21.8 3.1zm28.5-11c-.8 1.6-1.8 3.2-3 4.6l-29.9 4.3c-1.5-1-2.9-2.2-4.2-3.5l37.1-5.4z" fill="#000"/><path d="M652.2 167.7c-7.8-10.5-18.3-18.6-30.4-23.6-25.4-9.9-54.2-5.7-75.8 10.9-10.2 8.1-18 18.9-22.5 31.2-4.7 12.6-6 26.1-3.9 40.6 1.4 10 4.4 19.6 9 28.6 4.2 8.4 10 15.9 17.2 22.1l55-11.2-3.2-22-13.9 2 1.6 10.9-34.7 7c-9-9.3-15-23.8-17.1-38.8-1.8-11.1-.6-22.4 3.3-32.9 3.7-9.9 10.1-18.7 18.4-25.3 17.5-13.6 40.9-16.9 61.6-8.9 9.9 4 18.5 10.6 24.8 19.2 6.7 9 10.9 19.6 12.4 30.7 2.6 17.7-1 33.1-10.7 46.3l11.1 8.1c6-7.5 10.2-16.3 12.2-25.7 2.2-10.3 2.5-20.9.9-31.3-2.2-14.5-7.2-27.2-15.3-37.9z" fill="#000"/><path d="M599 193.7l10.2-1.5-1.1 3-10.6 1.5c-.6 1.4-1 2.8-1.2 4.3l10.3-1.5-1.1 3-9.4 1.3c0 1.4.1 2.7.4 4l7.3-1.1-1.1 3-5.5.8c.5 1.4 1.1 2.6 1.9 3.8l2-.3-1.6 4.5s0-.1-.2-.2-.1-.2-.2-.3c-.1-.1-.2-.2-.3-.4-.2-.2-.4-.5-.6-.8l-.7-1-.3-.4-.6-.9-.3-.6-.4-.8c-.1-.3-.3-.6-.4-.8-.8-1.7-1.3-3.4-1.6-5.3l-.1-.4-.1-.5c-.9-5.1-3.9-4.7-2.9 1 .1.4.1.9.1 1.3-.2 3.3-2.8 7.6-5.1 10.7l-4.2.6-.6-2.8 6.9-1c.4-1.4.7-2.8.8-4.2l-8.4 1.2-.6-2.7 9-1.3c-.1-1.4-.3-2.7-.8-4l-9.1 1.3-.6-2.7 8.6-1.3c-.6-1.3-1.4-2.6-2.4-3.8l-7.1 1-.6-2.7 5.3-.8c-.7-.6-1.3-1.1-2.1-1.6l-3.7.5-.8-3.9 35.9-5.2-1.5 4.3-9.4 1.4c-.5.9-1 1.6-1.4 2.3zm-54 21.7l5.5-.8c-.2.4-.4.8-.7 1.2-.7.9-1.7 1.7-2.7 2.1l-1.3.2v.2c-.1 0-.3 0-.4.1l-10.4 1.5c-3.6.6-7-1.8-7.6-5.4-.6-3.6 1.8-7 5.4-7.6h.3l10.5-1.5c1-.1 1.9-.1 2.9.2-.2.3-.3.6-.5.9-.3.6-.6 1.3-.8 1.9l4.5-.6c.6.8 1.1 1.7 1.3 2.7l-6.2.9c-.1 1 0 2 .1 3 0 .3.1.6.1 1zm113.3-20c.5 3.6-2 6.9-5.6 7.5l-10.5 1.5c-2.2.3-4.4-.5-5.9-2.2l3.6-.5-.2-1.1c-.1-1-.4-2-.7-2.9l-4.4.6c-.1-1 .1-2 .5-2.9l2.5-.4c-.4-.6-.8-1.1-1.3-1.6.8-.9 1.8-1.5 3-1.9.3-.1.6-.2.9-.2l10.5-1.5c3.7-.4 7.1 2.1 7.6 5.6z" fill="#000"/><defs><filter id="filter0_d" x="25.871" y="32.459" width="369.457" height="436.182" filterUnits="userSpaceOnUse" color-interpolation-filters="sRGB"><feFlood flood-opacity="0" result="BackgroundImageFix"/><feColorMatrix in="SourceAlpha" values="0 0 0 0 0 0 0 0 0 0 0 0 0 0 0 0 0 0 127 0"/><feMorphology radius="4" operator="dilate" in="SourceAlpha" result="effect1_dropShadow"/><feOffset dx="-3" dy="4"/><feGaussianBlur stdDeviation="2.5"/><feColorMatrix values="0 0 0 0 0 0 0 0 0 0 0 0 0 0 0 0 0 0 0.25 0"/><feBlend in2="BackgroundImageFix" result="effect1_dropShadow"/><feBlend in="SourceGraphic" in2="effect1_dropShadow" result="shape"/></filter><filter id="filter1_d" x="174.883" y="7.783" width="417.134" height="452.334" filterUnits="userSpaceOnUse" color-interpolation-filters="sRGB"><feFlood flood-opacity="0" result="BackgroundImageFix"/><feColorMatrix in="SourceAlpha" values="0 0 0 0 0 0 0 0 0 0 0 0 0 0 0 0 0 0 127 0"/><feMorphology radius="4" operator="dilate" in="SourceAlpha" result="effect1_dropShadow"/><feOffset dx="-3" dy="4"/><feGaussianBlur stdDeviation="2.5"/><feColorMatrix values="0 0 0 0 0 0 0 0 0 0 0 0 0 0 0 0 0 0 0.25 0"/><feBlend in2="BackgroundImageFix" result="effect1_dropShadow"/><feBlend in="SourceGraphic" in2="effect1_dropShadow" result="shape"/></filter><filter id="filter2_d" x="422.294" y="37.991" width="342.215" height="408.017" filterUnits="userSpaceOnUse" color-interpolation-filters="sRGB"><feFlood flood-opacity="0" result="BackgroundImageFix"/><feColorMatrix in="SourceAlpha" values="0 0 0 0 0 0 0 0 0 0 0 0 0 0 0 0 0 0 127 0"/><feMorphology radius="4" operator="dilate" in="SourceAlpha" result="effect1_dropShadow"/><feOffset dx="-3" dy="4"/><feGaussianBlur stdDeviation="2.5"/><feColorMatrix values="0 0 0 0 0 0 0 0 0 0 0 0 0 0 0 0 0 0 0.25 0"/><feBlend in2="BackgroundImageFix" result="effect1_dropShadow"/><feBlend in="SourceGraphic" in2="effect1_dropShadow" result="shape"/></filter><linearGradient id="paint0_linear" x1="244.772" y1="379.645" x2="177.874" y2="98.868" gradientUnits="userSpaceOnUse"><stop stop-color="#FF8200"/><stop offset="1" stop-color="#FFBB32"/></linearGradient><linearGradient id="paint1_linear" x1="445.077" y1="348.755" x2="322.304" y2="100.019" gradientUnits="userSpaceOnUse"><stop stop-color="#FF8200"/><stop offset="1" stop-color="#FFBB32"/></linearGradient><linearGradient id="paint2_linear" x1="615.409" y1="369.735" x2="575.582" y2="93.896" gradientUnits="userSpaceOnUse"><stop stop-color="#FF8200"/><stop offset="1" stop-color="#FFBB32"/></linearGradient></defs></svg>