<svg version="1.0" xmlns="http://www.w3.org/2000/svg" width="933.333" height="933.333" viewBox="0 0 700 700"><path d="M339.7 43.6c-.1.1-6.1.5-13.2.8-7.2.4-14.1.8-15.5 1-1.4.3-5.2.7-8.5 1.1-5.1.5-15.6 2.2-24.5 3.9-1.4.3-3.6.7-5 1-6.1 1.1-24.3 6-33.5 9.1-14.4 4.8-24.8 8.6-26 9.4-.5.4-2.6 1.4-4.5 2.1-7.5 2.8-33.7 16.4-43.8 22.7-10.6 6.6-28.2 18.9-31.8 22.1-1.1.9-4.2 3.5-6.9 5.7-16.6 13.4-38.4 36.2-53.1 55.5-22 29-42.8 69.3-54.2 105.1-5.6 17.3-11.9 43.6-13.7 56.4C1 371.4.5 378.2.5 410c0 27 .7 40.6 3 56.5.2 1.6.7 5.2 1 8 3.4 26.3 14.4 67.2 25.6 95.4 10.8 27 31.2 62.7 46.8 81.7 10.3 12.6 10.9 13.2 14.3 12.8 1.8-.1 8.5-.6 14.8-.9 6.3-.3 14.2-.8 17.5-1 3.3-.2 10.7-.7 16.5-1 5.8-.3 13.2-.8 16.5-1 3.3-.3 11.4-.7 18-1 6.6-.3 15.4-.8 19.5-1.1 13.2-.8 20.2-1.3 33.3-1.9 7.1-.4 15.2-.8 18-1 2.9-.2 10.6-.7 17.2-1 6.6-.3 14-.8 16.5-1 2.5-.2 10-.7 16.6-1 6.7-.3 14.8-.8 18-1 3.3-.2 11.8-.7 18.9-1 7.2-.4 13.9-.8 15-.9 2-.1 2-.9 2.3-52.9l.2-52.7h-8.5c-10.8-.1-26.7-.1-44.2 0h-13.8l.2 26 .2 26-2.2.1c-1.2.1-3.5.2-5.2.4-2.5.2-15.4.9-37.5 2-2.5.1-9 .5-14.5.9-5.5.3-14.3.8-19.5 1.1-5.2.3-12.6.7-16.5 1-3.8.2-11.9.7-18 1-6 .4-14.1.8-18 1-3.8.3-12.4.7-18.9 1.1-6.6.3-12.7.7-13.7.9-2.5.5-13.3-16.5-22.6-35.5-8.8-18.1-19.3-50.1-23.9-72.5-1.7-8.4-5.4-31.8-6-38-.2-2.2-.7-7.8-1.1-12.5-1-11.1-1-59.4 0-69 1.2-10.9 1.6-14.3 2.2-16.6.2-1.2.7-3.9 1-6 4.9-32.6 20.7-75.1 39.2-105.4 34.5-56.3 84.6-97 146.3-118.5 10.1-3.5 33.5-9.7 41.6-10.9 2.1-.4 6.6-1.1 9.9-1.6 11.5-1.9 23.1-2.5 47-2.4 19 .1 27.1.6 39 2.3 52.9 7.7 102.2 29.6 141.5 62.9 9 7.6 27.3 26.2 34.6 35.2 25.1 30.9 44 68.1 55.3 109 3 10.9 6.9 29.7 7.7 36.6.3 3.2.7 6.1.9 6.4 2.6 4.3 2.6 75.2 0 88.9-.1.9-.6 3.8-.9 6.6-.4 2.7-1.1 7.2-1.6 10-.5 2.7-1.1 6.1-1.4 7.5-2.3 13.7-11.5 43-18.4 58.8-11.6 26.4-32.2 57.7-49.7 75.7-1.1 1.1-2.9 3-3.9 4.3l-2 2.3 22.9 22.4c17.6 17.2 23.2 22.2 24.4 21.5 2.8-1.5 17.9-17.8 27.2-29.5 27.5-34.4 46.4-73.9 58.3-122.3 1.9-7.5 3.7-15.5 4.2-17.7.4-2.2.8-4.5 1-5 .3-1.4 1.2-6.2 1.9-10.5.3-1.9.7-4.6 1-6 .2-1.4.7-5.2 1.1-8.5.3-3.3.8-6.9 1-8 1.2-6.2 1.9-24.3 1.9-48-.1-23.3-.4-31.1-2-49-.8-8.1-1.5-13-4.6-30.5-4.6-26.4-14.6-59.7-24.5-81.8-6.7-14.9-16.7-34.2-22.7-43.7-4.5-7.3-16.9-25.9-17.6-26.5-.3-.3-2.6-3.2-5.1-6.4-6.1-8-18.6-22.2-26.9-30.4C557.3 104.7 514 78.2 462 61c-8.2-2.7-17.5-5.4-17.5-5 0 .1-1.2-.3-2.8-.9-1.5-.6-3.8-1.3-5-1.5-1.2-.3-6.5-1.4-11.7-2.5-12.3-2.6-16.8-3.3-29.5-4.7-3.3-.4-6.2-.8-6.6-1-1.1-.6-48.5-2.4-49.2-1.8z"/><path d="M225.5 285.2c-7.4.6-14.6 2-26 5.1-3.3.9-11.9 4.6-17.5 7.6-33.7 17.7-56.7 51.3-61.5 89.6-.6 4.9-.7 22.3-.2 25 .3 1.1.8 4.7 1.2 8 .9 7.5 6.3 24.1 10.5 32.6 4.6 9.1 11.1 18.7 16.8 25l4.9 5.4h163.5l4-4.5c4.2-4.8 12.8-16.5 12.8-17.4 0-.4 1.1-2.3 2.4-4.4 6-9.6 13.4-33.5 13.7-44.2 0-3.5.6-1.7 2.4 7.5 2.7 13.7 5.6 22.8 10.9 33.4 4.2 8.5 13 21.2 18.2 26.2l3.5 3.3 81.2.1 81.2.1 4.8-5c9-9.5 18.4-25.7 23.2-40 4.1-12.3 5.7-21.4 5.9-34.9.3-14.4-.4-20.2-3.8-33.2-7.1-27.1-25.1-51.9-48.4-66.9-19.9-12.9-39.8-18.8-62.9-18.8-6.5-.1-17.2.9-20.3 1.7-.3.1-2.5.5-4.9.9-6 1.1-16.2 4.7-24.1 8.4-22.1 10.4-42.5 30.4-53.9 53-4.7 9.3-9.7 25.4-11.1 35.5-.7 4.8-1.3 8.7-1.5 8.5-.1-.2-.5-3.2-.8-6.8-2.4-26.3-18.9-56.5-41.2-75.1-16.2-13.5-40.5-23.8-60.4-25.5-10.4-.9-13.6-.9-22.6-.2z"/></svg>